STARTFONT 2.1
COMMENT
COMMENT Converted from OpenType font "PressStart2P-Regular.ttf" by "otf2bdf 3.0".
COMMENT
FONT -FreeType-Press Start 2P-Medium-R-Normal--11-80-100-100-P-97-ISO10646-1
SIZE 8 100 100
FONTBOUNDINGBOX 19 17 -8 -4
STARTPROPERTIES 19
FOUNDRY "FreeType"
FAMILY_NAME "Press Start 2P"
WEIGHT_NAME "Medium"
SLANT "R"
SETWIDTH_NAME "Normal"
ADD_STYLE_NAME ""
PIXEL_SIZE 11
POINT_SIZE 80
RESOLUTION_X 100
RESOLUTION_Y 100
SPACING "P"
AVERAGE_WIDTH 97
CHARSET_REGISTRY "ISO10646"
CHARSET_ENCODING "1"
FONT_ASCENT 11
FONT_DESCENT 0
COPYRIGHT "Copyright 2012 The Press Start 2P Project Authors (cody@zone38.net), with Reserved Font Name "Press Start 2P""
_OTF_FONTFILE "PressStart2P-Regular.ttf"
_OTF_PSNAME "PressStart2P-Regular"
ENDPROPERTIES
CHARS 656
STARTCHAR 0000
ENCODING 0
SWIDTH 0 0
DWIDTH 0 0
BBX 0 0 0 0
BITMAP
ENDCHAR
STARTCHAR 000D
ENCODING 13
SWIDTH 990 0
DWIDTH 11 0
BBX 0 0 0 0
BITMAP
ENDCHAR
STARTCHAR 0020
ENCODING 32
SWIDTH 990 0
DWIDTH 11 0
BBX 0 0 0 0
BITMAP
ENDCHAR
STARTCHAR 0021
ENCODING 33
SWIDTH 990 0
DWIDTH 11 0
BBX 4 10 3 2
BITMAP
F0
F0
F0
F0
F0
E0
E0
00
E0
E0
ENDCHAR
STARTCHAR 0022
ENCODING 34
SWIDTH 990 0
DWIDTH 11 0
BBX 7 5 1 7
BITMAP
E6
E6
E6
E6
E6
ENDCHAR
STARTCHAR 0023
ENCODING 35
SWIDTH 990 0
DWIDTH 11 0
BBX 10 10 0 2
BITMAP
7300
FFC0
F300
7300
7300
7300
7300
FFC0
F300
7300
ENDCHAR
STARTCHAR 0024
ENCODING 36
SWIDTH 990 0
DWIDTH 11 0
BBX 10 10 0 2
BITMAP
0C00
7F00
6C00
EC00
FF00
7DC0
0DC0
FF00
FC00
0C00
ENDCHAR
STARTCHAR 0025
ENCODING 37
SWIDTH 990 0
DWIDTH 11 0
BBX 10 10 0 2
BITMAP
70C0
F1C0
9100
E200
EE00
1DC0
11C0
62C0
E3C0
8300
ENDCHAR
STARTCHAR 0026
ENCODING 38
SWIDTH 990 0
DWIDTH 11 0
BBX 10 10 0 2
BITMAP
7C00
EE00
EE00
EE00
7C00
6C00
EEC0
EFC0
E3C0
7FC0
ENDCHAR
STARTCHAR 0027
ENCODING 39
SWIDTH 990 0
DWIDTH 11 0
BBX 3 5 3 7
BITMAP
E0
E0
E0
E0
E0
ENDCHAR
STARTCHAR 0028
ENCODING 40
SWIDTH 990 0
DWIDTH 11 0
BBX 5 10 3 2
BITMAP
18
70
70
E0
E0
E0
E0
70
78
18
ENDCHAR
STARTCHAR 0029
ENCODING 41
SWIDTH 990 0
DWIDTH 11 0
BBX 6 10 1 2
BITMAP
E0
F8
38
1C
1C
1C
1C
38
20
E0
ENDCHAR
STARTCHAR 002A
ENCODING 42
SWIDTH 990 0
DWIDTH 11 0
BBX 10 8 0 3
BITMAP
7300
7200
1E00
FFC0
FE00
1E00
7300
7300
ENDCHAR
STARTCHAR 002B
ENCODING 43
SWIDTH 990 0
DWIDTH 11 0
BBX 9 8 1 3
BITMAP
1C00
1C00
1C00
1F80
FF80
1C00
1C00
1C00
ENDCHAR
STARTCHAR 002C
ENCODING 44
SWIDTH 990 0
DWIDTH 11 0
BBX 5 5 1 0
BITMAP
38
38
38
20
E0
ENDCHAR
STARTCHAR 002D
ENCODING 45
SWIDTH 990 0
DWIDTH 11 0
BBX 9 2 1 6
BITMAP
FF80
FF80
ENDCHAR
STARTCHAR 002E
ENCODING 46
SWIDTH 990 0
DWIDTH 11 0
BBX 3 3 3 2
BITMAP
E0
E0
E0
ENDCHAR
STARTCHAR 002F
ENCODING 47
SWIDTH 990 0
DWIDTH 11 0
BBX 10 10 0 2
BITMAP
00C0
01C0
0100
0200
0E00
1C00
1000
6000
E000
8000
ENDCHAR
STARTCHAR 0030
ENCODING 48
SWIDTH 990 0
DWIDTH 11 0
BBX 10 10 0 2
BITMAP
1E00
6300
6300
E1C0
E1C0
E1C0
E1C0
7100
7200
1E00
ENDCHAR
STARTCHAR 0031
ENCODING 49
SWIDTH 990 0
DWIDTH 11 0
BBX 9 10 1 2
BITMAP
1C00
3C00
3C00
1C00
1C00
1C00
1C00
1C00
1F80
FF80
ENDCHAR
STARTCHAR 0032
ENCODING 50
SWIDTH 990 0
DWIDTH 11 0
BBX 10 10 0 2
BITMAP
7F00
E1C0
E1C0
03C0
1F00
1F00
7E00
F000
FFC0
FFC0
ENDCHAR
STARTCHAR 0033
ENCODING 51
SWIDTH 990 0
DWIDTH 11 0
BBX 10 10 0 2
BITMAP
7FC0
7F00
0300
0E00
1F00
1F00
01C0
E1C0
E100
7F00
ENDCHAR
STARTCHAR 0034
ENCODING 52
SWIDTH 990 0
DWIDTH 11 0
BBX 10 10 0 2
BITMAP
0F00
1F00
1F00
7300
E300
E300
FFC0
0300
0300
0300
ENDCHAR
STARTCHAR 0035
ENCODING 53
SWIDTH 990 0
DWIDTH 11 0
BBX 10 10 0 2
BITMAP
FF00
E000
E000
FF00
FFC0
01C0
01C0
E1C0
E100
7F00
ENDCHAR
STARTCHAR 0036
ENCODING 54
SWIDTH 990 0
DWIDTH 11 0
BBX 10 10 0 2
BITMAP
1F00
1000
7000
E000
FF00
E100
E1C0
E1C0
E1C0
7F00
ENDCHAR
STARTCHAR 0037
ENCODING 55
SWIDTH 990 0
DWIDTH 11 0
BBX 10 10 0 2
BITMAP
FFC0
E1C0
E1C0
0300
0200
0E00
1C00
1C00
1C00
1C00
ENDCHAR
STARTCHAR 0038
ENCODING 56
SWIDTH 990 0
DWIDTH 11 0
BBX 10 10 0 2
BITMAP
7E00
E100
E100
F100
7E00
7E00
8FC0
81C0
8100
7F00
ENDCHAR
STARTCHAR 0039
ENCODING 57
SWIDTH 990 0
DWIDTH 11 0
BBX 10 10 0 2
BITMAP
7F00
E1C0
E1C0
E1C0
7FC0
7FC0
01C0
0300
0200
7E00
ENDCHAR
STARTCHAR 003A
ENCODING 58
SWIDTH 990 0
DWIDTH 11 0
BBX 3 7 3 3
BITMAP
E0
E0
E0
00
E0
E0
E0
ENDCHAR
STARTCHAR 003B
ENCODING 59
SWIDTH 990 0
DWIDTH 11 0
BBX 5 9 1 2
BITMAP
38
38
38
00
00
38
38
20
E0
ENDCHAR
STARTCHAR 003C
ENCODING 60
SWIDTH 990 0
DWIDTH 11 0
BBX 7 10 1 2
BITMAP
06
1C
1C
38
E0
E0
38
1C
1E
06
ENDCHAR
STARTCHAR 003D
ENCODING 61
SWIDTH 990 0
DWIDTH 11 0
BBX 10 5 0 4
BITMAP
FFC0
FFC0
0000
FFC0
FFC0
ENDCHAR
STARTCHAR 003E
ENCODING 62
SWIDTH 990 0
DWIDTH 11 0
BBX 7 10 1 2
BITMAP
E0
F8
38
1C
06
04
1C
38
20
E0
ENDCHAR
STARTCHAR 003F
ENCODING 63
SWIDTH 990 0
DWIDTH 11 0
BBX 10 10 0 2
BITMAP
7F00
FFC0
FFC0
E1C0
0300
0300
1E00
0000
1E00
1E00
ENDCHAR
STARTCHAR 0040
ENCODING 64
SWIDTH 990 0
DWIDTH 11 0
BBX 10 10 0 2
BITMAP
7F00
FFC0
80C0
9EC0
92C0
92C0
9FC0
8000
FF00
7F00
ENDCHAR
STARTCHAR 0041
ENCODING 65
SWIDTH 990 0
DWIDTH 11 0
BBX 10 10 0 2
BITMAP
1E00
1300
7300
E1C0
E1C0
E1C0
FFC0
E1C0
E1C0
E1C0
ENDCHAR
STARTCHAR 0042
ENCODING 66
SWIDTH 990 0
DWIDTH 11 0
BBX 10 10 0 2
BITMAP
FF00
E1C0
E1C0
E1C0
FF00
E100
E1C0
E1C0
E100
FF00
ENDCHAR
STARTCHAR 0043
ENCODING 67
SWIDTH 990 0
DWIDTH 11 0
BBX 10 10 0 2
BITMAP
1F00
71C0
61C0
E000
E000
E000
E000
71C0
7100
1F00
ENDCHAR
STARTCHAR 0044
ENCODING 68
SWIDTH 990 0
DWIDTH 11 0
BBX 10 10 0 2
BITMAP
FE00
E300
E300
E1C0
E1C0
E1C0
E1C0
E300
E200
FE00
ENDCHAR
STARTCHAR 0045
ENCODING 69
SWIDTH 990 0
DWIDTH 11 0
BBX 10 10 0 2
BITMAP
FFC0
E000
E000
E000
FF00
E000
E000
E000
FFC0
FFC0
ENDCHAR
STARTCHAR 0046
ENCODING 70
SWIDTH 990 0
DWIDTH 11 0
BBX 10 10 0 2
BITMAP
FFC0
E000
E000
E000
FF00
E000
E000
E000
E000
E000
ENDCHAR
STARTCHAR 0047
ENCODING 71
SWIDTH 990 0
DWIDTH 11 0
BBX 10 10 0 2
BITMAP
1FC0
7000
7000
E000
E3C0
E3C0
E1C0
71C0
71C0
1FC0
ENDCHAR
STARTCHAR 0048
ENCODING 72
SWIDTH 990 0
DWIDTH 11 0
BBX 10 10 0 2
BITMAP
E1C0
E1C0
E1C0
E1C0
FFC0
E1C0
E1C0
E1C0
E1C0
E1C0
ENDCHAR
STARTCHAR 0049
ENCODING 73
SWIDTH 990 0
DWIDTH 11 0
BBX 9 10 1 2
BITMAP
FF80
FC00
1C00
1C00
1C00
1C00
1C00
1C00
1F80
FF80
ENDCHAR
STARTCHAR 004A
ENCODING 74
SWIDTH 990 0
DWIDTH 11 0
BBX 10 10 0 2
BITMAP
01C0
01C0
01C0
01C0
01C0
01C0
01C0
E1C0
E1C0
7F00
ENDCHAR
STARTCHAR 004B
ENCODING 75
SWIDTH 990 0
DWIDTH 11 0
BBX 10 10 0 2
BITMAP
E1C0
E300
E300
EE00
FC00
FC00
FE00
EF00
EFC0
E3C0
ENDCHAR
STARTCHAR 004C
ENCODING 76
SWIDTH 990 0
DWIDTH 11 0
BBX 9 10 1 2
BITMAP
E000
E000
E000
E000
E000
E000
E000
E000
FF80
FF80
ENDCHAR
STARTCHAR 004D
ENCODING 77
SWIDTH 990 0
DWIDTH 11 0
BBX 10 10 0 2
BITMAP
E1C0
F3C0
F3C0
FFC0
EDC0
EDC0
EDC0
E1C0
E1C0
E1C0
ENDCHAR
STARTCHAR 004E
ENCODING 78
SWIDTH 990 0
DWIDTH 11 0
BBX 10 10 0 2
BITMAP
E1C0
F1C0
F1C0
FDC0
EFC0
EFC0
E3C0
E1C0
E1C0
E1C0
ENDCHAR
STARTCHAR 004F
ENCODING 79
SWIDTH 990 0
DWIDTH 11 0
BBX 10 10 0 2
BITMAP
7F00
E1C0
E1C0
E1C0
E1C0
E1C0
E1C0
E1C0
E100
7F00
ENDCHAR
STARTCHAR 0050
ENCODING 80
SWIDTH 990 0
DWIDTH 11 0
BBX 10 10 0 2
BITMAP
FF00
E1C0
E1C0
E1C0
E1C0
E100
FF00
E000
E000
E000
ENDCHAR
STARTCHAR 0051
ENCODING 81
SWIDTH 990 0
DWIDTH 11 0
BBX 10 10 0 2
BITMAP
7F00
E1C0
E1C0
E1C0
E1C0
E1C0
EFC0
E300
E2C0
7EC0
ENDCHAR
STARTCHAR 0052
ENCODING 82
SWIDTH 990 0
DWIDTH 11 0
BBX 10 10 0 2
BITMAP
FF00
E1C0
E1C0
E1C0
E3C0
E200
FE00
EF00
EFC0
E3C0
ENDCHAR
STARTCHAR 0053
ENCODING 83
SWIDTH 990 0
DWIDTH 11 0
BBX 10 10 0 2
BITMAP
7F00
E1C0
E1C0
E000
7F00
7F00
01C0
E1C0
E100
7F00
ENDCHAR
STARTCHAR 0054
ENCODING 84
SWIDTH 990 0
DWIDTH 11 0
BBX 9 10 1 2
BITMAP
FF80
FC00
1C00
1C00
1C00
1C00
1C00
1C00
1C00
1C00
ENDCHAR
STARTCHAR 0055
ENCODING 85
SWIDTH 990 0
DWIDTH 11 0
BBX 10 10 0 2
BITMAP
E1C0
E1C0
E1C0
E1C0
E1C0
E1C0
E1C0
E1C0
E1C0
7F00
ENDCHAR
STARTCHAR 0056
ENCODING 86
SWIDTH 990 0
DWIDTH 11 0
BBX 10 10 0 2
BITMAP
E1C0
E1C0
E1C0
E1C0
F3C0
F3C0
7F00
1E00
0C00
0C00
ENDCHAR
STARTCHAR 0057
ENCODING 87
SWIDTH 990 0
DWIDTH 11 0
BBX 10 10 0 2
BITMAP
EDC0
EDC0
EDC0
EDC0
EDC0
EDC0
FFC0
FFC0
F3C0
6100
ENDCHAR
STARTCHAR 0058
ENCODING 88
SWIDTH 990 0
DWIDTH 11 0
BBX 10 10 0 2
BITMAP
E1C0
E1C0
E1C0
7300
1E00
1200
7300
E1C0
E1C0
E1C0
ENDCHAR
STARTCHAR 0059
ENCODING 89
SWIDTH 990 0
DWIDTH 11 0
BBX 9 10 1 2
BITMAP
E380
E380
E380
E380
FF80
3E00
1C00
1C00
1C00
1C00
ENDCHAR
STARTCHAR 005A
ENCODING 90
SWIDTH 990 0
DWIDTH 11 0
BBX 10 10 0 2
BITMAP
FFC0
FFC0
03C0
0F00
1E00
1E00
7C00
F000
FFC0
FFC0
ENDCHAR
STARTCHAR 005B
ENCODING 91
SWIDTH 990 0
DWIDTH 11 0
BBX 5 10 3 2
BITMAP
F8
E0
E0
E0
E0
E0
E0
E0
F8
F8
ENDCHAR
STARTCHAR 005C
ENCODING 92
SWIDTH 990 0
DWIDTH 11 0
BBX 10 10 0 2
BITMAP
8000
E000
6000
1000
1C00
0E00
0200
0100
01C0
00C0
ENDCHAR
STARTCHAR 005D
ENCODING 93
SWIDTH 990 0
DWIDTH 11 0
BBX 6 10 1 2
BITMAP
FC
FC
1C
1C
1C
1C
1C
1C
1C
FC
ENDCHAR
STARTCHAR 005E
ENCODING 94
SWIDTH 990 0
DWIDTH 11 0
BBX 7 3 1 9
BITMAP
3C
26
E6
ENDCHAR
STARTCHAR 005F
ENCODING 95
SWIDTH 990 0
DWIDTH 11 0
BBX 10 2 0 0
BITMAP
FFC0
FFC0
ENDCHAR
STARTCHAR 0060
ENCODING 96
SWIDTH 990 0
DWIDTH 11 0
BBX 3 3 4 9
BITMAP
C0
E0
20
ENDCHAR
STARTCHAR 0061
ENCODING 97
SWIDTH 990 0
DWIDTH 11 0
BBX 10 7 0 2
BITMAP
7F00
7FC0
01C0
7FC0
E1C0
E1C0
7FC0
ENDCHAR
STARTCHAR 0062
ENCODING 98
SWIDTH 990 0
DWIDTH 11 0
BBX 10 10 0 2
BITMAP
E000
E000
E000
FF00
E100
E1C0
E1C0
E1C0
E1C0
7F00
ENDCHAR
STARTCHAR 0063
ENCODING 99
SWIDTH 990 0
DWIDTH 11 0
BBX 10 7 0 2
BITMAP
7FC0
E000
E000
E000
E000
7FC0
7FC0
ENDCHAR
STARTCHAR 0064
ENCODING 100
SWIDTH 990 0
DWIDTH 11 0
BBX 10 10 0 2
BITMAP
01C0
01C0
01C0
7FC0
E1C0
E1C0
E1C0
E1C0
61C0
7FC0
ENDCHAR
STARTCHAR 0065
ENCODING 101
SWIDTH 990 0
DWIDTH 11 0
BBX 10 7 0 2
BITMAP
7F00
E1C0
E1C0
FFC0
E000
7F00
7F00
ENDCHAR
STARTCHAR 0066
ENCODING 102
SWIDTH 990 0
DWIDTH 11 0
BBX 9 10 1 2
BITMAP
0780
1C00
1C00
FF80
FC00
1C00
1C00
1C00
1C00
1C00
ENDCHAR
STARTCHAR 0067
ENCODING 103
SWIDTH 990 0
DWIDTH 11 0
BBX 10 9 0 0
BITMAP
7FC0
61C0
E1C0
E1C0
E1C0
7FC0
01C0
0100
7F00
ENDCHAR
STARTCHAR 0068
ENCODING 104
SWIDTH 990 0
DWIDTH 11 0
BBX 10 10 0 2
BITMAP
E000
E000
E000
FF00
E1C0
E1C0
E1C0
E1C0
E1C0
E1C0
ENDCHAR
STARTCHAR 0069
ENCODING 105
SWIDTH 990 0
DWIDTH 11 0
BBX 9 10 1 2
BITMAP
1C00
1C00
0000
3C00
3C00
1C00
1C00
1C00
1F80
FF80
ENDCHAR
STARTCHAR 006A
ENCODING 106
SWIDTH 990 0
DWIDTH 11 0
BBX 7 12 1 0
BITMAP
06
06
00
1E
1E
06
06
06
06
06
04
FC
ENDCHAR
STARTCHAR 006B
ENCODING 107
SWIDTH 990 0
DWIDTH 11 0
BBX 10 10 0 2
BITMAP
E000
E000
E000
E1C0
E300
E200
FE00
E300
E1C0
E1C0
ENDCHAR
STARTCHAR 006C
ENCODING 108
SWIDTH 990 0
DWIDTH 11 0
BBX 9 10 1 2
BITMAP
3C00
3C00
1C00
1C00
1C00
1C00
1C00
1C00
1F80
FF80
ENDCHAR
STARTCHAR 006D
ENCODING 109
SWIDTH 990 0
DWIDTH 11 0
BBX 10 7 0 2
BITMAP
FF00
9DC0
9DC0
9DC0
9DC0
9DC0
9DC0
ENDCHAR
STARTCHAR 006E
ENCODING 110
SWIDTH 990 0
DWIDTH 11 0
BBX 10 7 0 2
BITMAP
FF00
E1C0
E1C0
E1C0
E1C0
E1C0
E1C0
ENDCHAR
STARTCHAR 006F
ENCODING 111
SWIDTH 990 0
DWIDTH 11 0
BBX 10 7 0 2
BITMAP
7F00
E1C0
E1C0
E1C0
E1C0
6100
7F00
ENDCHAR
STARTCHAR 0070
ENCODING 112
SWIDTH 990 0
DWIDTH 11 0
BBX 10 9 0 0
BITMAP
FF00
E100
E1C0
E1C0
E100
FF00
E000
E000
E000
ENDCHAR
STARTCHAR 0071
ENCODING 113
SWIDTH 990 0
DWIDTH 11 0
BBX 10 9 0 0
BITMAP
7FC0
61C0
E1C0
E1C0
E1C0
7FC0
01C0
01C0
01C0
ENDCHAR
STARTCHAR 0072
ENCODING 114
SWIDTH 990 0
DWIDTH 11 0
BBX 9 7 1 2
BITMAP
E780
FF80
E000
E000
E000
E000
E000
ENDCHAR
STARTCHAR 0073
ENCODING 115
SWIDTH 990 0
DWIDTH 11 0
BBX 10 7 0 2
BITMAP
7F00
E000
FF00
7F00
01C0
0100
FF00
ENDCHAR
STARTCHAR 0074
ENCODING 116
SWIDTH 990 0
DWIDTH 11 0
BBX 9 10 1 2
BITMAP
1C00
1C00
1C00
FF80
FC00
1C00
1C00
1C00
1C00
1C00
ENDCHAR
STARTCHAR 0075
ENCODING 117
SWIDTH 990 0
DWIDTH 11 0
BBX 10 7 0 2
BITMAP
E1C0
E1C0
E1C0
E1C0
E1C0
E1C0
7FC0
ENDCHAR
STARTCHAR 0076
ENCODING 118
SWIDTH 990 0
DWIDTH 11 0
BBX 9 7 1 2
BITMAP
E380
E380
E380
E380
3E00
3C00
1C00
ENDCHAR
STARTCHAR 0077
ENCODING 119
SWIDTH 990 0
DWIDTH 11 0
BBX 10 7 0 2
BITMAP
EDC0
EDC0
EDC0
EDC0
EDC0
FDC0
7300
ENDCHAR
STARTCHAR 0078
ENCODING 120
SWIDTH 990 0
DWIDTH 11 0
BBX 10 7 0 2
BITMAP
E1C0
F300
7200
1E00
7300
61C0
E1C0
ENDCHAR
STARTCHAR 0079
ENCODING 121
SWIDTH 990 0
DWIDTH 11 0
BBX 10 9 0 0
BITMAP
E1C0
E1C0
E1C0
E1C0
61C0
7FC0
01C0
0100
7F00
ENDCHAR
STARTCHAR 007A
ENCODING 122
SWIDTH 990 0
DWIDTH 11 0
BBX 10 7 0 2
BITMAP
FFC0
FF00
0F00
1E00
7C00
7FC0
FFC0
ENDCHAR
STARTCHAR 007B
ENCODING 123
SWIDTH 990 0
DWIDTH 11 0
BBX 5 10 3 2
BITMAP
18
70
70
70
E0
F0
70
70
78
18
ENDCHAR
STARTCHAR 007C
ENCODING 124
SWIDTH 990 0
DWIDTH 11 0
BBX 3 10 4 2
BITMAP
E0
E0
E0
E0
E0
E0
E0
E0
E0
E0
ENDCHAR
STARTCHAR 007D
ENCODING 125
SWIDTH 990 0
DWIDTH 11 0
BBX 6 10 1 2
BITMAP
E0
F8
38
38
1C
18
38
38
20
E0
ENDCHAR
STARTCHAR 007E
ENCODING 126
SWIDTH 990 0
DWIDTH 11 0
BBX 10 4 0 5
BITMAP
7C00
FEC0
9EC0
0F00
ENDCHAR
STARTCHAR 007F
ENCODING 127
SWIDTH 990 0
DWIDTH 11 0
BBX 7 3 1 2
BITMAP
E6
E6
E6
ENDCHAR
STARTCHAR 00A0
ENCODING 160
SWIDTH 990 0
DWIDTH 11 0
BBX 0 0 0 0
BITMAP
ENDCHAR
STARTCHAR 00A1
ENCODING 161
SWIDTH 990 0
DWIDTH 11 0
BBX 4 10 3 2
BITMAP
70
70
00
70
70
70
F0
F0
F0
F0
ENDCHAR
STARTCHAR 00A2
ENCODING 162
SWIDTH 990 0
DWIDTH 11 0
BBX 10 10 0 2
BITMAP
0C00
7F00
6D00
EDC0
EDC0
EDC0
EDC0
7F00
7C00
0C00
ENDCHAR
STARTCHAR 00A3
ENCODING 163
SWIDTH 990 0
DWIDTH 11 0
BBX 10 10 0 2
BITMAP
1F00
71C0
71C0
7000
FF00
F000
7000
7000
7FC0
FFC0
ENDCHAR
STARTCHAR 00A4
ENCODING 164
SWIDTH 990 0
DWIDTH 11 0
BBX 9 8 1 3
BITMAP
DD80
DD80
2200
2200
2200
2200
DD80
DD80
ENDCHAR
STARTCHAR 00A5
ENCODING 165
SWIDTH 990 0
DWIDTH 11 0
BBX 9 10 1 2
BITMAP
E380
E380
E380
3E00
FF80
FC00
1C00
FF80
FC00
1C00
ENDCHAR
STARTCHAR 00A6
ENCODING 166
SWIDTH 990 0
DWIDTH 11 0
BBX 3 10 4 2
BITMAP
E0
E0
E0
E0
E0
00
E0
E0
E0
E0
ENDCHAR
STARTCHAR 00A7
ENCODING 167
SWIDTH 990 0
DWIDTH 11 0
BBX 9 10 1 2
BITMAP
3E00
E380
E380
FC00
E200
2380
1F80
E380
E200
3E00
ENDCHAR
STARTCHAR 00A8
ENCODING 168
SWIDTH 990 0
DWIDTH 11 0
BBX 7 2 1 11
BITMAP
E6
E6
ENDCHAR
STARTCHAR 00A9
ENCODING 169
SWIDTH 990 0
DWIDTH 11 0
BBX 11 12 0 0
BITMAP
1F00
7FC0
60C0
8E20
8E20
9020
9020
9E20
8E20
60C0
7FC0
1F00
ENDCHAR
STARTCHAR 00AA
ENCODING 170
SWIDTH 990 0
DWIDTH 11 0
BBX 7 6 1 6
BITMAP
FC
FE
3E
E6
E6
3E
ENDCHAR
STARTCHAR 00AB
ENCODING 171
SWIDTH 990 0
DWIDTH 11 0
BBX 10 8 0 3
BITMAP
1DC0
1500
7300
EE00
EE00
7300
1DC0
1DC0
ENDCHAR
STARTCHAR 00AC
ENCODING 172
SWIDTH 990 0
DWIDTH 11 0
BBX 9 4 1 5
BITMAP
FF80
FF80
0380
0380
ENDCHAR
STARTCHAR 00AD
ENCODING 173
SWIDTH 990 0
DWIDTH 11 0
BBX 9 2 1 6
BITMAP
FF80
FF80
ENDCHAR
STARTCHAR 00AE
ENCODING 174
SWIDTH 990 0
DWIDTH 11 0
BBX 11 12 0 0
BITMAP
1F00
7FC0
60C0
9E20
9120
9120
9E20
9120
9120
60C0
7FC0
1F00
ENDCHAR
STARTCHAR 00AF
ENCODING 175
SWIDTH 990 0
DWIDTH 11 0
BBX 7 2 1 11
BITMAP
FE
FE
ENDCHAR
STARTCHAR 00B0
ENCODING 176
SWIDTH 990 0
DWIDTH 11 0
BBX 4 5 3 7
BITMAP
60
60
90
F0
60
ENDCHAR
STARTCHAR 00B1
ENCODING 177
SWIDTH 990 0
DWIDTH 11 0
BBX 9 10 1 2
BITMAP
1C00
1C00
1C00
FF80
FC00
1C00
1C00
1C00
FF80
FF80
ENDCHAR
STARTCHAR 00B2
ENCODING 178
SWIDTH 990 0
DWIDTH 11 0
BBX 5 6 3 6
BITMAP
F0
F8
18
70
78
F8
ENDCHAR
STARTCHAR 00B3
ENCODING 179
SWIDTH 990 0
DWIDTH 11 0
BBX 5 6 3 6
BITMAP
F8
F0
70
18
10
F0
ENDCHAR
STARTCHAR 00B4
ENCODING 180
SWIDTH 990 0
DWIDTH 11 0
BBX 3 3 4 9
BITMAP
20
E0
C0
ENDCHAR
STARTCHAR 00B5
ENCODING 181
SWIDTH 990 0
DWIDTH 11 0
BBX 10 9 0 0
BITMAP
E300
E300
E300
E300
E300
FFC0
FDC0
E000
E000
ENDCHAR
STARTCHAR 00B6
ENCODING 182
SWIDTH 990 0
DWIDTH 11 0
BBX 9 10 1 2
BITMAP
3F80
E580
E580
C580
E580
E580
3F80
0580
0580
0580
ENDCHAR
STARTCHAR 00B7
ENCODING 183
SWIDTH 990 0
DWIDTH 11 0
BBX 3 3 3 5
BITMAP
E0
E0
E0
ENDCHAR
STARTCHAR 00B8
ENCODING 184
SWIDTH 990 0
DWIDTH 11 0
BBX 4 3 3 0
BITMAP
10
F0
E0
ENDCHAR
STARTCHAR 00B9
ENCODING 185
SWIDTH 990 0
DWIDTH 11 0
BBX 5 6 3 6
BITMAP
70
70
F0
70
78
F8
ENDCHAR
STARTCHAR 00BA
ENCODING 186
SWIDTH 990 0
DWIDTH 11 0
BBX 7 6 1 6
BITMAP
3C
24
E6
E6
E4
3C
ENDCHAR
STARTCHAR 00BB
ENCODING 187
SWIDTH 990 0
DWIDTH 11 0
BBX 10 8 0 3
BITMAP
EE00
EA00
7300
1DC0
1100
7300
EE00
EE00
ENDCHAR
STARTCHAR 00BC
ENCODING 188
SWIDTH 990 0
DWIDTH 11 0
BBX 10 11 0 2
BITMAP
60C0
60C0
E100
E300
6200
6CC0
7CC0
11C0
63C0
E3C0
80C0
ENDCHAR
STARTCHAR 00BD
ENCODING 189
SWIDTH 990 0
DWIDTH 11 0
BBX 10 11 0 2
BITMAP
60C0
60C0
E100
E300
6200
6DC0
7DC0
10C0
6100
E1C0
83C0
ENDCHAR
STARTCHAR 00BE
ENCODING 190
SWIDTH 990 0
DWIDTH 11 0
BBX 10 11 0 2
BITMAP
F0C0
F0C0
6100
7300
1200
ECC0
FCC0
11C0
63C0
E3C0
80C0
ENDCHAR
STARTCHAR 00BF
ENCODING 191
SWIDTH 990 0
DWIDTH 11 0
BBX 10 10 0 2
BITMAP
1E00
1E00
0000
1E00
1000
7000
E1C0
FFC0
FFC0
7F00
ENDCHAR
STARTCHAR 00C0
ENCODING 192
SWIDTH 990 0
DWIDTH 11 0
BBX 10 10 0 2
BITMAP
1000
1C00
0C00
1E00
7300
7300
E1C0
FFC0
E1C0
E1C0
ENDCHAR
STARTCHAR 00C1
ENCODING 193
SWIDTH 990 0
DWIDTH 11 0
BBX 10 10 0 2
BITMAP
0200
0E00
0C00
1E00
7300
7300
E1C0
FFC0
E1C0
E1C0
ENDCHAR
STARTCHAR 00C2
ENCODING 194
SWIDTH 990 0
DWIDTH 11 0
BBX 10 10 0 2
BITMAP
1E00
7300
7200
1E00
1300
7300
E1C0
FFC0
E1C0
E1C0
ENDCHAR
STARTCHAR 00C3
ENCODING 195
SWIDTH 990 0
DWIDTH 11 0
BBX 10 10 0 2
BITMAP
1D00
7F00
6E00
1E00
1300
7300
E1C0
FFC0
E1C0
E1C0
ENDCHAR
STARTCHAR 00C4
ENCODING 196
SWIDTH 990 0
DWIDTH 11 0
BBX 10 10 0 2
BITMAP
7300
7300
0000
1E00
1300
7300
E1C0
FFC0
E1C0
E1C0
ENDCHAR
STARTCHAR 00C5
ENCODING 197
SWIDTH 990 0
DWIDTH 11 0
BBX 10 10 0 2
BITMAP
0C00
1200
1200
1E00
1300
7300
E1C0
FFC0
E1C0
E1C0
ENDCHAR
STARTCHAR 00C6
ENCODING 198
SWIDTH 990 0
DWIDTH 11 0
BBX 10 10 0 2
BITMAP
1FC0
1E00
7E00
EE00
EFC0
EE00
FE00
EE00
EFC0
EFC0
ENDCHAR
STARTCHAR 00C7
ENCODING 199
SWIDTH 990 0
DWIDTH 11 0
BBX 10 12 0 0
BITMAP
1F00
11C0
71C0
E000
E000
E000
71C0
7100
1F00
0200
1C00
1C00
ENDCHAR
STARTCHAR 00C8
ENCODING 200
SWIDTH 990 0
DWIDTH 11 0
BBX 10 10 0 2
BITMAP
1000
1C00
0C00
FFC0
E000
FF00
FF00
E000
FFC0
FFC0
ENDCHAR
STARTCHAR 00C9
ENCODING 201
SWIDTH 990 0
DWIDTH 11 0
BBX 10 10 0 2
BITMAP
0200
0E00
0C00
FFC0
E000
FF00
FF00
E000
FFC0
FFC0
ENDCHAR
STARTCHAR 00CA
ENCODING 202
SWIDTH 990 0
DWIDTH 11 0
BBX 10 10 0 2
BITMAP
1E00
1300
7300
FFC0
E000
FF00
FF00
E000
FFC0
FFC0
ENDCHAR
STARTCHAR 00CB
ENCODING 203
SWIDTH 990 0
DWIDTH 11 0
BBX 10 10 0 2
BITMAP
7300
7300
0000
FFC0
E000
FF00
FF00
E000
FFC0
FFC0
ENDCHAR
STARTCHAR 00CC
ENCODING 204
SWIDTH 990 0
DWIDTH 11 0
BBX 9 10 1 2
BITMAP
1800
1C00
0400
FF80
FC00
1C00
1C00
1C00
1F80
FF80
ENDCHAR
STARTCHAR 00CD
ENCODING 205
SWIDTH 990 0
DWIDTH 11 0
BBX 9 10 1 2
BITMAP
0400
1C00
1800
FF80
FC00
1C00
1C00
1C00
1F80
FF80
ENDCHAR
STARTCHAR 00CE
ENCODING 206
SWIDTH 990 0
DWIDTH 11 0
BBX 9 10 1 2
BITMAP
1C00
3E00
3E00
FF80
FC00
1C00
1C00
1C00
1F80
FF80
ENDCHAR
STARTCHAR 00CF
ENCODING 207
SWIDTH 990 0
DWIDTH 11 0
BBX 9 10 1 2
BITMAP
E380
E380
0000
FF80
FC00
1C00
1C00
1C00
1F80
FF80
ENDCHAR
STARTCHAR 00D0
ENCODING 208
SWIDTH 990 0
DWIDTH 11 0
BBX 10 10 0 2
BITMAP
7E00
7300
7300
71C0
FDC0
F1C0
71C0
7300
7200
7E00
ENDCHAR
STARTCHAR 00D1
ENCODING 209
SWIDTH 990 0
DWIDTH 11 0
BBX 10 10 0 2
BITMAP
1D00
7F00
6E00
F1C0
FDC0
FDC0
FFC0
EFC0
E3C0
E3C0
ENDCHAR
STARTCHAR 00D2
ENCODING 210
SWIDTH 990 0
DWIDTH 11 0
BBX 10 10 0 2
BITMAP
1000
1C00
0C00
7F00
E1C0
E1C0
E1C0
E1C0
6100
7F00
ENDCHAR
STARTCHAR 00D3
ENCODING 211
SWIDTH 990 0
DWIDTH 11 0
BBX 10 10 0 2
BITMAP
0200
0E00
0C00
7F00
E1C0
E1C0
E1C0
E1C0
6100
7F00
ENDCHAR
STARTCHAR 00D4
ENCODING 212
SWIDTH 990 0
DWIDTH 11 0
BBX 10 10 0 2
BITMAP
1E00
1300
7300
7F00
E1C0
E1C0
E1C0
E1C0
6100
7F00
ENDCHAR
STARTCHAR 00D5
ENCODING 213
SWIDTH 990 0
DWIDTH 11 0
BBX 10 10 0 2
BITMAP
1D00
2E00
6E00
7F00
E1C0
E1C0
E1C0
E1C0
6100
7F00
ENDCHAR
STARTCHAR 00D6
ENCODING 214
SWIDTH 990 0
DWIDTH 11 0
BBX 10 10 0 2
BITMAP
7300
7300
0000
7F00
E1C0
E1C0
E1C0
E1C0
6100
7F00
ENDCHAR
STARTCHAR 00D7
ENCODING 215
SWIDTH 990 0
DWIDTH 11 0
BBX 7 8 1 3
BITMAP
C2
C2
24
3C
18
24
E6
C2
ENDCHAR
STARTCHAR 00D8
ENCODING 216
SWIDTH 990 0
DWIDTH 11 0
BBX 10 10 0 2
BITMAP
7F00
E1C0
E1C0
E3C0
EFC0
FDC0
F1C0
E1C0
E100
7F00
ENDCHAR
STARTCHAR 00D9
ENCODING 217
SWIDTH 990 0
DWIDTH 11 0
BBX 10 10 0 2
BITMAP
1000
1C00
0C00
E1C0
E1C0
E1C0
E1C0
E1C0
E1C0
7F00
ENDCHAR
STARTCHAR 00DA
ENCODING 218
SWIDTH 990 0
DWIDTH 11 0
BBX 10 10 0 2
BITMAP
0200
0E00
0C00
E1C0
E1C0
E1C0
E1C0
E1C0
E1C0
7F00
ENDCHAR
STARTCHAR 00DB
ENCODING 219
SWIDTH 990 0
DWIDTH 11 0
BBX 10 10 0 2
BITMAP
1E00
7300
7300
0000
E1C0
E1C0
E1C0
E1C0
6100
7F00
ENDCHAR
STARTCHAR 00DC
ENCODING 220
SWIDTH 990 0
DWIDTH 11 0
BBX 10 10 0 2
BITMAP
7300
7300
0000
E1C0
E1C0
E1C0
E1C0
E1C0
E1C0
7F00
ENDCHAR
STARTCHAR 00DD
ENCODING 221
SWIDTH 990 0
DWIDTH 11 0
BBX 9 10 1 2
BITMAP
0400
1C00
1800
E380
E380
E380
3E00
1C00
1C00
1C00
ENDCHAR
STARTCHAR 00DE
ENCODING 222
SWIDTH 990 0
DWIDTH 11 0
BBX 10 10 0 2
BITMAP
E000
FF00
E100
E1C0
E1C0
E1C0
E1C0
FF00
E000
E000
ENDCHAR
STARTCHAR 00DF
ENCODING 223
SWIDTH 990 0
DWIDTH 11 0
BBX 9 10 1 2
BITMAP
3E00
E380
E380
E380
E600
E600
E380
FB80
E200
E600
ENDCHAR
STARTCHAR 00E0
ENCODING 224
SWIDTH 990 0
DWIDTH 11 0
BBX 10 10 0 2
BITMAP
1000
1C00
0C00
7F00
7FC0
01C0
7FC0
E1C0
E1C0
7FC0
ENDCHAR
STARTCHAR 00E1
ENCODING 225
SWIDTH 990 0
DWIDTH 11 0
BBX 10 10 0 2
BITMAP
0200
0E00
0C00
7F00
7FC0
01C0
7FC0
E1C0
E1C0
7FC0
ENDCHAR
STARTCHAR 00E2
ENCODING 226
SWIDTH 990 0
DWIDTH 11 0
BBX 10 10 0 2
BITMAP
1E00
1300
7300
7F00
7FC0
01C0
7FC0
E1C0
E1C0
7FC0
ENDCHAR
STARTCHAR 00E3
ENCODING 227
SWIDTH 990 0
DWIDTH 11 0
BBX 10 10 0 2
BITMAP
1D00
2E00
6E00
7F00
7FC0
01C0
7FC0
E1C0
E1C0
7FC0
ENDCHAR
STARTCHAR 00E4
ENCODING 228
SWIDTH 990 0
DWIDTH 11 0
BBX 10 10 0 2
BITMAP
7300
7300
0000
7F00
7FC0
01C0
7FC0
E1C0
E1C0
7FC0
ENDCHAR
STARTCHAR 00E5
ENCODING 229
SWIDTH 990 0
DWIDTH 11 0
BBX 10 10 0 2
BITMAP
0C00
0A00
1200
7F00
7FC0
01C0
7FC0
E1C0
E1C0
7FC0
ENDCHAR
STARTCHAR 00E6
ENCODING 230
SWIDTH 990 0
DWIDTH 11 0
BBX 10 7 0 2
BITMAP
7F00
7DC0
0DC0
7FC0
EC00
EF00
7F00
ENDCHAR
STARTCHAR 00E7
ENCODING 231
SWIDTH 990 0
DWIDTH 11 0
BBX 10 9 0 0
BITMAP
7FC0
6000
E000
E000
FFC0
7FC0
0200
1C00
1C00
ENDCHAR
STARTCHAR 00E8
ENCODING 232
SWIDTH 990 0
DWIDTH 11 0
BBX 10 10 0 2
BITMAP
1000
1C00
0C00
7F00
E1C0
E1C0
FFC0
E000
7F00
7F00
ENDCHAR
STARTCHAR 00E9
ENCODING 233
SWIDTH 990 0
DWIDTH 11 0
BBX 10 10 0 2
BITMAP
0200
0E00
0C00
7F00
E1C0
E1C0
FFC0
E000
7F00
7F00
ENDCHAR
STARTCHAR 00EA
ENCODING 234
SWIDTH 990 0
DWIDTH 11 0
BBX 10 10 0 2
BITMAP
1E00
1300
7300
7F00
E1C0
E1C0
FFC0
E000
7F00
7F00
ENDCHAR
STARTCHAR 00EB
ENCODING 235
SWIDTH 990 0
DWIDTH 11 0
BBX 10 10 0 2
BITMAP
7300
7300
0000
7F00
E1C0
E1C0
FFC0
E000
7F00
7F00
ENDCHAR
STARTCHAR 00EC
ENCODING 236
SWIDTH 990 0
DWIDTH 11 0
BBX 9 10 1 2
BITMAP
2000
3800
1800
0000
3C00
3C00
1C00
1C00
1F80
FF80
ENDCHAR
STARTCHAR 00ED
ENCODING 237
SWIDTH 990 0
DWIDTH 11 0
BBX 9 10 1 2
BITMAP
0400
1C00
1800
0000
3C00
3C00
1C00
1C00
1F80
FF80
ENDCHAR
STARTCHAR 00EE
ENCODING 238
SWIDTH 990 0
DWIDTH 11 0
BBX 9 10 1 2
BITMAP
3C00
E600
E600
0000
3C00
3C00
1C00
1C00
1F80
FF80
ENDCHAR
STARTCHAR 00EF
ENCODING 239
SWIDTH 990 0
DWIDTH 11 0
BBX 9 10 1 2
BITMAP
E600
E600
0000
3C00
3C00
1C00
1C00
1C00
1F80
FF80
ENDCHAR
STARTCHAR 00F0
ENCODING 240
SWIDTH 990 0
DWIDTH 11 0
BBX 10 10 0 2
BITMAP
7100
7F00
7E00
8E00
FF00
6100
E1C0
E1C0
E100
7F00
ENDCHAR
STARTCHAR 00F1
ENCODING 241
SWIDTH 990 0
DWIDTH 11 0
BBX 10 10 0 2
BITMAP
1D00
2E00
6E00
FF00
E1C0
E1C0
E1C0
E1C0
E1C0
E1C0
ENDCHAR
STARTCHAR 00F2
ENCODING 242
SWIDTH 990 0
DWIDTH 11 0
BBX 10 10 0 2
BITMAP
1000
1C00
0C00
7F00
E1C0
E1C0
E1C0
E1C0
6100
7F00
ENDCHAR
STARTCHAR 00F3
ENCODING 243
SWIDTH 990 0
DWIDTH 11 0
BBX 10 10 0 2
BITMAP
0200
0E00
0C00
7F00
E1C0
E1C0
E1C0
E1C0
6100
7F00
ENDCHAR
STARTCHAR 00F4
ENCODING 244
SWIDTH 990 0
DWIDTH 11 0
BBX 10 10 0 2
BITMAP
1E00
1300
7300
7F00
E1C0
E1C0
E1C0
E1C0
6100
7F00
ENDCHAR
STARTCHAR 00F5
ENCODING 245
SWIDTH 990 0
DWIDTH 11 0
BBX 10 10 0 2
BITMAP
1D00
2E00
6E00
7F00
E1C0
E1C0
E1C0
E1C0
6100
7F00
ENDCHAR
STARTCHAR 00F6
ENCODING 246
SWIDTH 990 0
DWIDTH 11 0
BBX 10 10 0 2
BITMAP
7300
7300
0000
7F00
E1C0
E1C0
E1C0
E1C0
6100
7F00
ENDCHAR
STARTCHAR 00F7
ENCODING 247
SWIDTH 990 0
DWIDTH 11 0
BBX 9 8 1 3
BITMAP
1C00
1C00
0000
FF80
FF80
0000
1C00
1C00
ENDCHAR
STARTCHAR 00F8
ENCODING 248
SWIDTH 990 0
DWIDTH 11 0
BBX 10 7 0 2
BITMAP
7F00
E3C0
EFC0
EDC0
F1C0
7100
7F00
ENDCHAR
STARTCHAR 00F9
ENCODING 249
SWIDTH 990 0
DWIDTH 11 0
BBX 10 10 0 2
BITMAP
1000
1C00
0C00
E1C0
E1C0
E1C0
E1C0
E1C0
E1C0
7FC0
ENDCHAR
STARTCHAR 00FA
ENCODING 250
SWIDTH 990 0
DWIDTH 11 0
BBX 10 10 0 2
BITMAP
0200
0E00
0C00
E1C0
E1C0
E1C0
E1C0
E1C0
E1C0
7FC0
ENDCHAR
STARTCHAR 00FB
ENCODING 251
SWIDTH 990 0
DWIDTH 11 0
BBX 10 10 0 2
BITMAP
1E00
7300
7300
0000
E1C0
E1C0
E1C0
E1C0
61C0
7FC0
ENDCHAR
STARTCHAR 00FC
ENCODING 252
SWIDTH 990 0
DWIDTH 11 0
BBX 10 10 0 2
BITMAP
7300
7300
0000
E1C0
E1C0
E1C0
E1C0
E1C0
E1C0
7FC0
ENDCHAR
STARTCHAR 00FD
ENCODING 253
SWIDTH 990 0
DWIDTH 11 0
BBX 10 12 0 0
BITMAP
0200
0E00
0C00
E1C0
E1C0
E1C0
E1C0
61C0
7FC0
01C0
0100
7F00
ENDCHAR
STARTCHAR 00FE
ENCODING 254
SWIDTH 990 0
DWIDTH 11 0
BBX 10 12 0 0
BITMAP
E000
E000
E000
FF00
E100
E1C0
E1C0
E100
FF00
E000
E000
E000
ENDCHAR
STARTCHAR 00FF
ENCODING 255
SWIDTH 990 0
DWIDTH 11 0
BBX 10 12 0 0
BITMAP
7300
7300
0000
E1C0
E1C0
E1C0
E1C0
61C0
7FC0
01C0
0100
7F00
ENDCHAR
STARTCHAR 0100
ENCODING 256
SWIDTH 990 0
DWIDTH 11 0
BBX 10 10 0 2
BITMAP
7F00
7F00
0000
1E00
1300
7300
E1C0
FFC0
E1C0
E1C0
ENDCHAR
STARTCHAR 0101
ENCODING 257
SWIDTH 990 0
DWIDTH 11 0
BBX 10 10 0 2
BITMAP
7F00
7F00
0000
7F00
7FC0
01C0
7FC0
E1C0
E1C0
7FC0
ENDCHAR
STARTCHAR 0102
ENCODING 258
SWIDTH 990 0
DWIDTH 11 0
BBX 10 10 0 2
BITMAP
6100
7F00
1E00
1E00
7300
7300
E1C0
FFC0
E1C0
E1C0
ENDCHAR
STARTCHAR 0103
ENCODING 259
SWIDTH 990 0
DWIDTH 11 0
BBX 10 10 0 2
BITMAP
6100
7F00
1E00
7F00
7FC0
01C0
7FC0
E1C0
E1C0
7FC0
ENDCHAR
STARTCHAR 0104
ENCODING 260
SWIDTH 990 0
DWIDTH 11 0
BBX 10 12 0 0
BITMAP
1E00
7300
7300
E1C0
E1C0
FFC0
E1C0
0100
0300
0200
01C0
01C0
ENDCHAR
STARTCHAR 0105
ENCODING 261
SWIDTH 990 0
DWIDTH 11 0
BBX 10 12 0 0
BITMAP
7F00
7FC0
01C0
7FC0
61C0
E1C0
7FC0
0C00
1C00
1000
0E00
0E00
ENDCHAR
STARTCHAR 0106
ENCODING 262
SWIDTH 990 0
DWIDTH 11 0
BBX 10 10 0 2
BITMAP
0200
0E00
0C00
1F00
71C0
61C0
E000
71C0
7100
1F00
ENDCHAR
STARTCHAR 0107
ENCODING 263
SWIDTH 990 0
DWIDTH 11 0
BBX 10 10 0 2
BITMAP
0200
0E00
0C00
7FC0
E000
E000
E000
E000
7FC0
7FC0
ENDCHAR
STARTCHAR 0108
ENCODING 264
SWIDTH 990 0
DWIDTH 11 0
BBX 10 10 0 2
BITMAP
1E00
7300
7300
1F00
71C0
61C0
E000
71C0
7100
1F00
ENDCHAR
STARTCHAR 0109
ENCODING 265
SWIDTH 990 0
DWIDTH 11 0
BBX 10 10 0 2
BITMAP
1E00
1300
7300
7FC0
E000
E000
E000
E000
7FC0
7FC0
ENDCHAR
STARTCHAR 010A
ENCODING 266
SWIDTH 990 0
DWIDTH 11 0
BBX 10 10 0 2
BITMAP
0E00
0E00
0000
1F00
71C0
61C0
E000
71C0
7100
1F00
ENDCHAR
STARTCHAR 010B
ENCODING 267
SWIDTH 990 0
DWIDTH 11 0
BBX 10 10 0 2
BITMAP
0E00
0E00
0000
7FC0
E000
E000
E000
E000
7FC0
7FC0
ENDCHAR
STARTCHAR 010C
ENCODING 268
SWIDTH 990 0
DWIDTH 11 0
BBX 10 10 0 2
BITMAP
71C0
7F00
1F00
1F00
71C0
61C0
E000
71C0
7100
1F00
ENDCHAR
STARTCHAR 010D
ENCODING 269
SWIDTH 990 0
DWIDTH 11 0
BBX 10 10 0 2
BITMAP
7300
7200
1E00
7FC0
E000
E000
E000
E000
7FC0
7FC0
ENDCHAR
STARTCHAR 010E
ENCODING 270
SWIDTH 990 0
DWIDTH 11 0
BBX 10 10 0 2
BITMAP
7300
7E00
1E00
FE00
E300
E3C0
E1C0
E300
E200
FE00
ENDCHAR
STARTCHAR 010F
ENCODING 271
SWIDTH 990 0
DWIDTH 11 0
BBX 11 10 0 2
BITMAP
0EE0
0EE0
0EE0
7EC0
EEC0
EE00
EE00
EE00
6E00
7E00
ENDCHAR
STARTCHAR 0110
ENCODING 272
SWIDTH 990 0
DWIDTH 11 0
BBX 10 10 0 2
BITMAP
7E00
7300
7300
71C0
FDC0
F1C0
71C0
7300
7200
7E00
ENDCHAR
STARTCHAR 0111
ENCODING 273
SWIDTH 990 0
DWIDTH 11 0
BBX 10 10 0 2
BITMAP
0300
0FC0
0F00
7F00
E300
E300
E300
E300
6300
7F00
ENDCHAR
STARTCHAR 0112
ENCODING 274
SWIDTH 990 0
DWIDTH 11 0
BBX 10 10 0 2
BITMAP
7F00
7F00
0000
FFC0
E000
FF00
FF00
E000
FFC0
FFC0
ENDCHAR
STARTCHAR 0113
ENCODING 275
SWIDTH 990 0
DWIDTH 11 0
BBX 10 10 0 2
BITMAP
7F00
7F00
0000
7F00
E1C0
E1C0
FFC0
E000
7F00
7F00
ENDCHAR
STARTCHAR 0114
ENCODING 276
SWIDTH 990 0
DWIDTH 11 0
BBX 10 10 0 2
BITMAP
6100
7F00
1E00
FFC0
E000
FF00
FF00
E000
FFC0
FFC0
ENDCHAR
STARTCHAR 0115
ENCODING 277
SWIDTH 990 0
DWIDTH 11 0
BBX 10 10 0 2
BITMAP
6100
7F00
1E00
7F00
E1C0
E1C0
FFC0
E000
7F00
7F00
ENDCHAR
STARTCHAR 0116
ENCODING 278
SWIDTH 990 0
DWIDTH 11 0
BBX 10 10 0 2
BITMAP
0E00
0E00
0000
FFC0
E000
FF00
FF00
E000
FFC0
FFC0
ENDCHAR
STARTCHAR 0117
ENCODING 279
SWIDTH 990 0
DWIDTH 11 0
BBX 10 10 0 2
BITMAP
0E00
0E00
0000
7F00
E1C0
E1C0
FFC0
E000
7F00
7F00
ENDCHAR
STARTCHAR 0118
ENCODING 280
SWIDTH 990 0
DWIDTH 11 0
BBX 10 12 0 0
BITMAP
FFC0
E000
E000
FF00
E000
E000
FFC0
FC00
1C00
1000
0E00
0E00
ENDCHAR
STARTCHAR 0119
ENCODING 281
SWIDTH 990 0
DWIDTH 11 0
BBX 10 12 0 0
BITMAP
7F00
E1C0
E1C0
FFC0
E000
E000
7F00
7C00
1C00
1000
0E00
0E00
ENDCHAR
STARTCHAR 011A
ENCODING 282
SWIDTH 990 0
DWIDTH 11 0
BBX 10 10 0 2
BITMAP
7300
7200
1E00
FFC0
E000
FF00
FF00
E000
FFC0
FFC0
ENDCHAR
STARTCHAR 011B
ENCODING 283
SWIDTH 990 0
DWIDTH 11 0
BBX 10 10 0 2
BITMAP
7300
7E00
1E00
7F00
E1C0
E1C0
FFC0
E000
7F00
7F00
ENDCHAR
STARTCHAR 011C
ENCODING 284
SWIDTH 990 0
DWIDTH 11 0
BBX 10 10 0 2
BITMAP
1E00
1300
7300
7FC0
E000
E3C0
E3C0
E1C0
61C0
7FC0
ENDCHAR
STARTCHAR 011D
ENCODING 285
SWIDTH 990 0
DWIDTH 11 0
BBX 10 12 0 0
BITMAP
1E00
1300
7300
7FC0
61C0
E1C0
E1C0
E1C0
7FC0
01C0
0100
7F00
ENDCHAR
STARTCHAR 011E
ENCODING 286
SWIDTH 990 0
DWIDTH 11 0
BBX 10 10 0 2
BITMAP
6100
7F00
1E00
7FC0
E000
E3C0
E3C0
E1C0
61C0
7FC0
ENDCHAR
STARTCHAR 011F
ENCODING 287
SWIDTH 990 0
DWIDTH 11 0
BBX 10 12 0 0
BITMAP
6100
6100
1E00
7FC0
7FC0
E1C0
E1C0
E1C0
7FC0
01C0
0100
7F00
ENDCHAR
STARTCHAR 0120
ENCODING 288
SWIDTH 990 0
DWIDTH 11 0
BBX 10 10 0 2
BITMAP
0E00
0E00
0000
7FC0
E000
E3C0
E3C0
E1C0
61C0
7FC0
ENDCHAR
STARTCHAR 0121
ENCODING 289
SWIDTH 990 0
DWIDTH 11 0
BBX 10 12 0 0
BITMAP
0E00
0E00
0000
7FC0
61C0
E1C0
E1C0
E1C0
7FC0
01C0
0100
7F00
ENDCHAR
STARTCHAR 0122
ENCODING 290
SWIDTH 990 0
DWIDTH 11 0
BBX 10 12 0 0
BITMAP
1FC0
7000
7000
E000
E3C0
E3C0
71C0
1FC0
1FC0
0E00
0C00
1C00
ENDCHAR
STARTCHAR 0123
ENCODING 291
SWIDTH 990 0
DWIDTH 11 0
BBX 10 12 0 0
BITMAP
0E00
0C00
1C00
7FC0
61C0
E1C0
E1C0
E1C0
7FC0
01C0
0100
7F00
ENDCHAR
STARTCHAR 0124
ENCODING 292
SWIDTH 990 0
DWIDTH 11 0
BBX 10 10 0 2
BITMAP
1E00
F3C0
E3C0
E1C0
E1C0
E1C0
FFC0
E1C0
E1C0
E1C0
ENDCHAR
STARTCHAR 0125
ENCODING 293
SWIDTH 990 0
DWIDTH 11 0
BBX 10 10 0 2
BITMAP
1E00
F300
E300
E000
FF00
E100
E1C0
E1C0
E1C0
E1C0
ENDCHAR
STARTCHAR 0126
ENCODING 294
SWIDTH 990 0
DWIDTH 11 0
BBX 10 10 0 2
BITMAP
E1C0
FFC0
E1C0
E1C0
FFC0
E1C0
E1C0
E1C0
E1C0
E1C0
ENDCHAR
STARTCHAR 0127
ENCODING 295
SWIDTH 990 0
DWIDTH 11 0
BBX 10 10 0 2
BITMAP
7000
FE00
F000
7000
7F00
7100
71C0
71C0
71C0
71C0
ENDCHAR
STARTCHAR 0128
ENCODING 296
SWIDTH 990 0
DWIDTH 11 0
BBX 9 10 1 2
BITMAP
3980
FF80
C600
FF80
FC00
1C00
1C00
1C00
1F80
FF80
ENDCHAR
STARTCHAR 0129
ENCODING 297
SWIDTH 990 0
DWIDTH 11 0
BBX 9 10 1 2
BITMAP
3980
FF80
C600
0000
3C00
3C00
1C00
1C00
1F80
FF80
ENDCHAR
STARTCHAR 012A
ENCODING 298
SWIDTH 990 0
DWIDTH 11 0
BBX 9 10 1 2
BITMAP
FF80
FF80
0000
FF80
FC00
1C00
1C00
1C00
1F80
FF80
ENDCHAR
STARTCHAR 012B
ENCODING 299
SWIDTH 990 0
DWIDTH 11 0
BBX 9 10 1 2
BITMAP
FE00
FE00
0000
3C00
3C00
1C00
1C00
1C00
1F80
FF80
ENDCHAR
STARTCHAR 012C
ENCODING 300
SWIDTH 990 0
DWIDTH 11 0
BBX 9 10 1 2
BITMAP
2200
3E00
1C00
FF80
FC00
1C00
1C00
1C00
1F80
FF80
ENDCHAR
STARTCHAR 012D
ENCODING 301
SWIDTH 990 0
DWIDTH 11 0
BBX 9 10 1 2
BITMAP
C200
FE00
3C00
0000
3C00
3C00
1C00
1C00
1F80
FF80
ENDCHAR
STARTCHAR 012E
ENCODING 302
SWIDTH 990 0
DWIDTH 11 0
BBX 9 12 1 0
BITMAP
FF80
FC00
1C00
1C00
1C00
1C00
FF80
F800
3800
2000
1C00
1C00
ENDCHAR
STARTCHAR 012F
ENCODING 303
SWIDTH 990 0
DWIDTH 11 0
BBX 9 12 1 0
BITMAP
1C00
1C00
0000
3C00
3C00
1C00
FF80
F800
3800
2000
1C00
1C00
ENDCHAR
STARTCHAR 0130
ENCODING 304
SWIDTH 990 0
DWIDTH 11 0
BBX 9 10 1 2
BITMAP
1C00
1C00
0000
FF80
FC00
1C00
1C00
1C00
1F80
FF80
ENDCHAR
STARTCHAR 0131
ENCODING 305
SWIDTH 990 0
DWIDTH 11 0
BBX 9 7 1 2
BITMAP
3C00
3C00
1C00
1C00
1C00
1F80
FF80
ENDCHAR
STARTCHAR 0132
ENCODING 306
SWIDTH 990 0
DWIDTH 11 0
BBX 10 10 0 2
BITMAP
FDC0
F1C0
71C0
71C0
71C0
7DC0
FDC0
01C0
01C0
7F00
ENDCHAR
STARTCHAR 0133
ENCODING 307
SWIDTH 990 0
DWIDTH 11 0
BBX 10 12 0 0
BITMAP
71C0
71C0
0000
F3C0
F3C0
71C0
71C0
71C0
71C0
01C0
0100
1F00
ENDCHAR
STARTCHAR 0134
ENCODING 308
SWIDTH 990 0
DWIDTH 11 0
BBX 10 10 0 2
BITMAP
0F00
1DC0
1DC0
01C0
01C0
01C0
01C0
E1C0
E100
7F00
ENDCHAR
STARTCHAR 0135
ENCODING 309
SWIDTH 990 0
DWIDTH 11 0
BBX 9 12 1 0
BITMAP
1E00
1B80
3B80
0000
1E00
1E00
0600
0600
0600
0600
0400
FC00
ENDCHAR
STARTCHAR 0136
ENCODING 310
SWIDTH 990 0
DWIDTH 11 0
BBX 10 12 0 0
BITMAP
E300
EE00
EE00
FC00
FE00
FE00
EF00
E3C0
E400
1C00
1000
7000
ENDCHAR
STARTCHAR 0137
ENCODING 311
SWIDTH 990 0
DWIDTH 11 0
BBX 10 12 0 0
BITMAP
E000
E1C0
E1C0
E300
E200
FE00
E300
E1C0
FDC0
1C00
1000
7000
ENDCHAR
STARTCHAR 0138
ENCODING 312
SWIDTH 990 0
DWIDTH 11 0
BBX 10 7 0 2
BITMAP
E1C0
E300
E200
FE00
E300
E1C0
E1C0
ENDCHAR
STARTCHAR 0139
ENCODING 313
SWIDTH 990 0
DWIDTH 11 0
BBX 9 10 1 2
BITMAP
0400
FC00
E000
E000
E000
E000
E000
E000
FF80
FF80
ENDCHAR
STARTCHAR 013A
ENCODING 314
SWIDTH 990 0
DWIDTH 11 0
BBX 8 10 0 2
BITMAP
0C
1C
10
7C
7C
1C
1C
1C
1F
FF
ENDCHAR
STARTCHAR 013B
ENCODING 315
SWIDTH 990 0
DWIDTH 11 0
BBX 9 12 1 0
BITMAP
E000
E000
E000
E000
E000
E000
E000
FF80
FF80
1C00
1800
3800
ENDCHAR
STARTCHAR 013C
ENCODING 316
SWIDTH 990 0
DWIDTH 11 0
BBX 9 12 1 0
BITMAP
3C00
3C00
1C00
1C00
1C00
1C00
1C00
1F80
FF80
1C00
1800
3800
ENDCHAR
STARTCHAR 013D
ENCODING 317
SWIDTH 990 0
DWIDTH 11 0
BBX 9 10 1 2
BITMAP
E380
E380
E380
E200
E000
E000
E000
E000
FF80
FF80
ENDCHAR
STARTCHAR 013E
ENCODING 318
SWIDTH 990 0
DWIDTH 11 0
BBX 10 10 0 2
BITMAP
7DC0
7DC0
1DC0
1D00
1C00
1C00
1C00
1C00
1F00
FF00
ENDCHAR
STARTCHAR 013F
ENCODING 319
SWIDTH 990 0
DWIDTH 11 0
BBX 9 10 1 2
BITMAP
E000
E000
E000
E600
E600
E600
E000
E000
FF80
FF80
ENDCHAR
STARTCHAR 0140
ENCODING 320
SWIDTH 990 0
DWIDTH 11 0
BBX 10 10 0 2
BITMAP
7C00
7C00
1C00
1DC0
1DC0
1DC0
1C00
1C00
1F00
FF00
ENDCHAR
STARTCHAR 0141
ENCODING 321
SWIDTH 990 0
DWIDTH 11 0
BBX 10 10 0 2
BITMAP
7000
7000
7000
7C00
F000
F000
7000
7000
7FC0
7FC0
ENDCHAR
STARTCHAR 0142
ENCODING 322
SWIDTH 990 0
DWIDTH 11 0
BBX 9 10 1 2
BITMAP
3C00
3C00
1C00
1E00
3C00
3C00
1C00
1C00
1F80
FF80
ENDCHAR
STARTCHAR 0143
ENCODING 323
SWIDTH 990 0
DWIDTH 11 0
BBX 10 10 0 2
BITMAP
0200
0E00
0C00
F1C0
FDC0
FDC0
FFC0
EFC0
E3C0
E3C0
ENDCHAR
STARTCHAR 0144
ENCODING 324
SWIDTH 990 0
DWIDTH 11 0
BBX 10 10 0 2
BITMAP
0200
0E00
0C00
FF00
E1C0
E1C0
E1C0
E1C0
E1C0
E1C0
ENDCHAR
STARTCHAR 0145
ENCODING 325
SWIDTH 990 0
DWIDTH 11 0
BBX 10 12 0 0
BITMAP
F1C0
FDC0
FDC0
FFC0
FFC0
EFC0
E3C0
E1C0
EFC0
0E00
0C00
1C00
ENDCHAR
STARTCHAR 0146
ENCODING 326
SWIDTH 990 0
DWIDTH 11 0
BBX 10 11 0 0
BITMAP
FF00
FF00
E1C0
E1C0
E1C0
E1C0
E1C0
EFC0
0E00
0C00
1C00
ENDCHAR
STARTCHAR 0147
ENCODING 327
SWIDTH 990 0
DWIDTH 11 0
BBX 10 10 0 2
BITMAP
7300
7E00
1000
F1C0
FDC0
FDC0
FFC0
EFC0
E3C0
E3C0
ENDCHAR
STARTCHAR 0148
ENCODING 328
SWIDTH 990 0
DWIDTH 11 0
BBX 10 10 0 2
BITMAP
7300
7E00
1E00
FF00
E1C0
E1C0
E1C0
E1C0
E1C0
E1C0
ENDCHAR
STARTCHAR 014A
ENCODING 330
SWIDTH 990 0
DWIDTH 11 0
BBX 10 12 0 0
BITMAP
F1C0
FDC0
FDC0
FFC0
FFC0
EFC0
E3C0
E1C0
E1C0
01C0
0100
1F00
ENDCHAR
STARTCHAR 014B
ENCODING 331
SWIDTH 990 0
DWIDTH 11 0
BBX 10 11 0 0
BITMAP
FF00
FF00
E1C0
E1C0
E1C0
E1C0
E1C0
E1C0
01C0
0100
1F00
ENDCHAR
STARTCHAR 014C
ENCODING 332
SWIDTH 990 0
DWIDTH 11 0
BBX 10 10 0 2
BITMAP
7F00
7F00
0000
7F00
E1C0
E1C0
E1C0
E1C0
6100
7F00
ENDCHAR
STARTCHAR 014D
ENCODING 333
SWIDTH 990 0
DWIDTH 11 0
BBX 10 10 0 2
BITMAP
7F00
7F00
0000
7F00
E1C0
E1C0
E1C0
E1C0
6100
7F00
ENDCHAR
STARTCHAR 014E
ENCODING 334
SWIDTH 990 0
DWIDTH 11 0
BBX 10 10 0 2
BITMAP
6100
7F00
1E00
7F00
E1C0
E1C0
E1C0
E1C0
6100
7F00
ENDCHAR
STARTCHAR 014F
ENCODING 335
SWIDTH 990 0
DWIDTH 11 0
BBX 10 10 0 2
BITMAP
6100
7F00
1E00
7F00
E1C0
E1C0
E1C0
E1C0
6100
7F00
ENDCHAR
STARTCHAR 0150
ENCODING 336
SWIDTH 990 0
DWIDTH 11 0
BBX 10 10 0 2
BITMAP
1100
7300
6200
7F00
E1C0
E1C0
E1C0
E1C0
6100
7F00
ENDCHAR
STARTCHAR 0151
ENCODING 337
SWIDTH 990 0
DWIDTH 11 0
BBX 10 10 0 2
BITMAP
1100
7300
6200
7F00
E1C0
E1C0
E1C0
E1C0
6100
7F00
ENDCHAR
STARTCHAR 0152
ENCODING 338
SWIDTH 990 0
DWIDTH 11 0
BBX 10 10 0 2
BITMAP
7FC0
EE00
EE00
EE00
EFC0
EE00
EE00
EE00
EFC0
7FC0
ENDCHAR
STARTCHAR 0153
ENCODING 339
SWIDTH 990 0
DWIDTH 11 0
BBX 10 7 0 2
BITMAP
7F00
EDC0
EDC0
EFC0
EC00
6F00
7F00
ENDCHAR
STARTCHAR 0154
ENCODING 340
SWIDTH 990 0
DWIDTH 11 0
BBX 10 10 0 2
BITMAP
0200
0E00
0C00
FF00
E3C0
E200
FE00
EF00
EFC0
E3C0
ENDCHAR
STARTCHAR 0155
ENCODING 341
SWIDTH 990 0
DWIDTH 11 0
BBX 9 10 1 2
BITMAP
0400
1C00
1800
E780
FF80
E000
E000
E000
E000
E000
ENDCHAR
STARTCHAR 0156
ENCODING 342
SWIDTH 990 0
DWIDTH 11 0
BBX 10 12 0 0
BITMAP
FF00
E100
E1C0
E3C0
E200
FE00
EF00
EFC0
E3C0
0E00
0C00
1C00
ENDCHAR
STARTCHAR 0157
ENCODING 343
SWIDTH 990 0
DWIDTH 11 0
BBX 9 11 1 0
BITMAP
E780
E780
F800
E000
E000
E000
E000
F800
3800
2000
E000
ENDCHAR
STARTCHAR 0158
ENCODING 344
SWIDTH 990 0
DWIDTH 11 0
BBX 10 10 0 2
BITMAP
1200
1E00
0C00
FF00
E3C0
E200
FE00
EF00
EFC0
E3C0
ENDCHAR
STARTCHAR 0159
ENCODING 345
SWIDTH 990 0
DWIDTH 11 0
BBX 9 10 1 2
BITMAP
3B80
3A00
1E00
E780
F800
E000
E000
E000
E000
E000
ENDCHAR
STARTCHAR 015A
ENCODING 346
SWIDTH 990 0
DWIDTH 11 0
BBX 10 10 0 2
BITMAP
0200
0E00
0C00
7F00
E000
FF00
7F00
01C0
0100
FF00
ENDCHAR
STARTCHAR 015B
ENCODING 347
SWIDTH 990 0
DWIDTH 11 0
BBX 10 10 0 2
BITMAP
0200
0E00
0C00
7F00
E000
FF00
7F00
01C0
0100
FF00
ENDCHAR
STARTCHAR 015C
ENCODING 348
SWIDTH 990 0
DWIDTH 11 0
BBX 10 10 0 2
BITMAP
1E00
1300
7300
7F00
E000
E000
7F00
01C0
0100
FF00
ENDCHAR
STARTCHAR 015D
ENCODING 349
SWIDTH 990 0
DWIDTH 11 0
BBX 10 10 0 2
BITMAP
1E00
1300
7300
7F00
E000
E000
7F00
01C0
0100
FF00
ENDCHAR
STARTCHAR 015E
ENCODING 350
SWIDTH 990 0
DWIDTH 11 0
BBX 10 12 0 0
BITMAP
7F00
6000
E000
7F00
7F00
01C0
E1C0
E100
7F00
0200
1C00
1C00
ENDCHAR
STARTCHAR 015F
ENCODING 351
SWIDTH 990 0
DWIDTH 11 0
BBX 10 11 0 0
BITMAP
7F00
7F00
E000
FF00
7F00
01C0
0100
FF00
0200
1C00
1C00
ENDCHAR
STARTCHAR 0160
ENCODING 352
SWIDTH 990 0
DWIDTH 11 0
BBX 10 10 0 2
BITMAP
7300
7200
1E00
7F00
E000
E000
7F00
01C0
0100
FF00
ENDCHAR
STARTCHAR 0161
ENCODING 353
SWIDTH 990 0
DWIDTH 11 0
BBX 10 10 0 2
BITMAP
7300
7200
1E00
7F00
E000
E000
7F00
01C0
0100
FF00
ENDCHAR
STARTCHAR 0164
ENCODING 356
SWIDTH 990 0
DWIDTH 11 0
BBX 9 10 1 2
BITMAP
2200
3E00
1C00
FF80
FC00
1C00
1C00
1C00
1C00
1C00
ENDCHAR
STARTCHAR 0165
ENCODING 357
SWIDTH 990 0
DWIDTH 11 0
BBX 9 10 1 2
BITMAP
2200
3E00
1C00
1C00
FF80
FC00
1C00
1C00
1C00
1C00
ENDCHAR
STARTCHAR 0166
ENCODING 358
SWIDTH 990 0
DWIDTH 11 0
BBX 9 10 1 2
BITMAP
FF80
FC00
1C00
1C00
1E00
1C00
3C00
1C00
1C00
1C00
ENDCHAR
STARTCHAR 0167
ENCODING 359
SWIDTH 990 0
DWIDTH 11 0
BBX 9 10 1 2
BITMAP
1C00
1C00
1C00
FF80
FC00
1E00
1E00
3C00
3C00
1C00
ENDCHAR
STARTCHAR 0168
ENCODING 360
SWIDTH 990 0
DWIDTH 11 0
BBX 10 10 0 2
BITMAP
1D00
7F00
6E00
E1C0
E1C0
E1C0
E1C0
E1C0
E1C0
7F00
ENDCHAR
STARTCHAR 0169
ENCODING 361
SWIDTH 990 0
DWIDTH 11 0
BBX 10 10 0 2
BITMAP
1D00
7F00
6E00
E1C0
E1C0
E1C0
E1C0
E1C0
E1C0
7FC0
ENDCHAR
STARTCHAR 016A
ENCODING 362
SWIDTH 990 0
DWIDTH 11 0
BBX 10 10 0 2
BITMAP
7F00
7F00
0000
E1C0
E1C0
E1C0
E1C0
E1C0
E1C0
7F00
ENDCHAR
STARTCHAR 016B
ENCODING 363
SWIDTH 990 0
DWIDTH 11 0
BBX 10 10 0 2
BITMAP
7F00
7F00
0000
E1C0
E1C0
E1C0
E1C0
E1C0
E1C0
7FC0
ENDCHAR
STARTCHAR 016C
ENCODING 364
SWIDTH 990 0
DWIDTH 11 0
BBX 10 10 0 2
BITMAP
6100
7F00
1E00
E1C0
E1C0
E1C0
E1C0
E1C0
E1C0
7F00
ENDCHAR
STARTCHAR 016D
ENCODING 365
SWIDTH 990 0
DWIDTH 11 0
BBX 10 10 0 2
BITMAP
6100
7F00
1E00
E1C0
E1C0
E1C0
E1C0
E1C0
E1C0
7FC0
ENDCHAR
STARTCHAR 016E
ENCODING 366
SWIDTH 990 0
DWIDTH 11 0
BBX 10 10 0 2
BITMAP
1E00
7300
5280
9EC0
9EC0
E1C0
E1C0
E1C0
E1C0
7F00
ENDCHAR
STARTCHAR 016F
ENCODING 367
SWIDTH 990 0
DWIDTH 11 0
BBX 10 10 0 2
BITMAP
1E00
7300
5280
9EC0
9EC0
E1C0
E1C0
E1C0
E1C0
7FC0
ENDCHAR
STARTCHAR 0170
ENCODING 368
SWIDTH 990 0
DWIDTH 11 0
BBX 10 10 0 2
BITMAP
1100
7300
6200
E1C0
E1C0
E1C0
E1C0
E1C0
E1C0
7F00
ENDCHAR
STARTCHAR 0171
ENCODING 369
SWIDTH 990 0
DWIDTH 11 0
BBX 10 10 0 2
BITMAP
1100
7300
6200
E1C0
E1C0
E1C0
E1C0
E1C0
E1C0
7FC0
ENDCHAR
STARTCHAR 0172
ENCODING 370
SWIDTH 990 0
DWIDTH 11 0
BBX 10 12 0 0
BITMAP
E1C0
E1C0
E1C0
E1C0
E1C0
E1C0
7F00
7C00
1C00
1000
0E00
0E00
ENDCHAR
STARTCHAR 0173
ENCODING 371
SWIDTH 990 0
DWIDTH 11 0
BBX 10 12 0 0
BITMAP
E1C0
E1C0
E1C0
E1C0
E1C0
E1C0
7FC0
0C00
1C00
1000
0E00
0E00
ENDCHAR
STARTCHAR 0174
ENCODING 372
SWIDTH 990 0
DWIDTH 11 0
BBX 10 10 0 2
BITMAP
1E00
1300
7300
E1C0
EDC0
EDC0
FFC0
FFC0
F3C0
F3C0
ENDCHAR
STARTCHAR 0175
ENCODING 373
SWIDTH 990 0
DWIDTH 11 0
BBX 10 10 0 2
BITMAP
1E00
7300
7300
0000
EDC0
EDC0
EDC0
EDC0
7100
7300
ENDCHAR
STARTCHAR 0176
ENCODING 374
SWIDTH 990 0
DWIDTH 11 0
BBX 9 10 1 2
BITMAP
1C00
2200
2200
E380
E380
E380
3E00
1C00
1C00
1C00
ENDCHAR
STARTCHAR 0177
ENCODING 375
SWIDTH 990 0
DWIDTH 11 0
BBX 10 12 0 0
BITMAP
1E00
1300
7300
0000
E1C0
E1C0
E1C0
61C0
7FC0
01C0
0100
7F00
ENDCHAR
STARTCHAR 0178
ENCODING 376
SWIDTH 990 0
DWIDTH 11 0
BBX 9 10 1 2
BITMAP
E380
E380
0000
E380
E380
E380
3E00
1C00
1C00
1C00
ENDCHAR
STARTCHAR 0179
ENCODING 377
SWIDTH 990 0
DWIDTH 11 0
BBX 10 10 0 2
BITMAP
0200
0E00
0C00
FFC0
FF00
0F00
1E00
7C00
7FC0
FFC0
ENDCHAR
STARTCHAR 017A
ENCODING 378
SWIDTH 990 0
DWIDTH 11 0
BBX 10 10 0 2
BITMAP
0200
0E00
0C00
FFC0
FF00
0F00
1E00
7C00
7FC0
FFC0
ENDCHAR
STARTCHAR 017B
ENCODING 379
SWIDTH 990 0
DWIDTH 11 0
BBX 10 10 0 2
BITMAP
0E00
0E00
0000
FFC0
FF00
0F00
1E00
7C00
7FC0
FFC0
ENDCHAR
STARTCHAR 017C
ENCODING 380
SWIDTH 990 0
DWIDTH 11 0
BBX 10 10 0 2
BITMAP
0E00
0E00
0000
FFC0
FF00
0F00
1E00
7C00
7FC0
FFC0
ENDCHAR
STARTCHAR 017D
ENCODING 381
SWIDTH 990 0
DWIDTH 11 0
BBX 10 10 0 2
BITMAP
7300
7200
1E00
FFC0
FF00
0F00
1E00
7C00
7FC0
FFC0
ENDCHAR
STARTCHAR 017E
ENCODING 382
SWIDTH 990 0
DWIDTH 11 0
BBX 10 10 0 2
BITMAP
7300
7200
1E00
FFC0
FF00
0F00
1E00
7C00
7FC0
FFC0
ENDCHAR
STARTCHAR 017F
ENCODING 383
SWIDTH 990 0
DWIDTH 11 0
BBX 6 10 4 2
BITMAP
3C
E0
E0
E0
E0
E0
E0
E0
E0
E0
ENDCHAR
STARTCHAR 0192
ENCODING 402
SWIDTH 990 0
DWIDTH 11 0
BBX 9 10 1 2
BITMAP
0780
0400
1C00
FF80
FC00
1C00
1C00
1C00
1800
F800
ENDCHAR
STARTCHAR 021A
ENCODING 538
SWIDTH 990 0
DWIDTH 11 0
BBX 9 12 1 0
BITMAP
FF80
FC00
1C00
1C00
1C00
1C00
1C00
1C00
1C00
0400
3800
3800
ENDCHAR
STARTCHAR 021B
ENCODING 539
SWIDTH 990 0
DWIDTH 11 0
BBX 9 12 1 0
BITMAP
1C00
1C00
1C00
FF80
FC00
1C00
1C00
1C00
1C00
0400
3800
3800
ENDCHAR
STARTCHAR 02BC
ENCODING 700
SWIDTH 990 0
DWIDTH 11 0
BBX 3 4 0 8
BITMAP
E0
E0
E0
80
ENDCHAR
STARTCHAR 02C6
ENCODING 710
SWIDTH 990 0
DWIDTH 11 0
BBX 7 3 1 9
BITMAP
3C
26
E6
ENDCHAR
STARTCHAR 02C7
ENCODING 711
SWIDTH 990 0
DWIDTH 11 0
BBX 7 3 1 9
BITMAP
E6
E4
3C
ENDCHAR
STARTCHAR 02C9
ENCODING 713
SWIDTH 990 0
DWIDTH 11 0
BBX 7 2 1 11
BITMAP
FE
FE
ENDCHAR
STARTCHAR 02CA
ENCODING 714
SWIDTH 990 0
DWIDTH 11 0
BBX 3 3 4 9
BITMAP
20
E0
C0
ENDCHAR
STARTCHAR 02CB
ENCODING 715
SWIDTH 990 0
DWIDTH 11 0
BBX 3 3 4 9
BITMAP
C0
E0
20
ENDCHAR
STARTCHAR 02D7
ENCODING 727
SWIDTH 990 0
DWIDTH 11 0
BBX 7 2 1 6
BITMAP
FE
FE
ENDCHAR
STARTCHAR 02D8
ENCODING 728
SWIDTH 990 0
DWIDTH 11 0
BBX 7 3 1 9
BITMAP
C2
FE
3C
ENDCHAR
STARTCHAR 02D9
ENCODING 729
SWIDTH 990 0
DWIDTH 11 0
BBX 3 2 4 11
BITMAP
E0
E0
ENDCHAR
STARTCHAR 02DA
ENCODING 730
SWIDTH 990 0
DWIDTH 11 0
BBX 7 5 1 7
BITMAP
3C
3C
E6
E4
3C
ENDCHAR
STARTCHAR 02DB
ENCODING 731
SWIDTH 990 0
DWIDTH 11 0
BBX 4 5 3 0
BITMAP
60
60
80
F0
70
ENDCHAR
STARTCHAR 02DC
ENCODING 732
SWIDTH 990 0
DWIDTH 11 0
BBX 7 3 1 9
BITMAP
3A
FE
DC
ENDCHAR
STARTCHAR 02DD
ENCODING 733
SWIDTH 990 0
DWIDTH 11 0
BBX 7 3 1 9
BITMAP
22
E6
C4
ENDCHAR
STARTCHAR 0300
ENCODING 768
SWIDTH 0 0
DWIDTH 0 0
BBX 3 3 -8 9
BITMAP
C0
E0
60
ENDCHAR
STARTCHAR 0301
ENCODING 769
SWIDTH 0 0
DWIDTH 0 0
BBX 3 3 -7 9
BITMAP
20
E0
C0
ENDCHAR
STARTCHAR 0326
ENCODING 806
SWIDTH 0 0
DWIDTH 0 0
BBX 4 4 -8 -4
BITMAP
70
70
40
C0
ENDCHAR
STARTCHAR 0335
ENCODING 821
SWIDTH 0 0
DWIDTH 0 0
BBX 5 2 -8 4
BITMAP
F8
F8
ENDCHAR
STARTCHAR 037A
ENCODING 890
SWIDTH 990 0
DWIDTH 11 0
BBX 4 3 4 0
BITMAP
C0
F0
30
ENDCHAR
STARTCHAR 037E
ENCODING 894
SWIDTH 990 0
DWIDTH 11 0
BBX 5 9 1 2
BITMAP
38
38
38
00
00
38
38
20
E0
ENDCHAR
STARTCHAR 0384
ENCODING 900
SWIDTH 990 0
DWIDTH 11 0
BBX 3 3 4 9
BITMAP
20
E0
C0
ENDCHAR
STARTCHAR 0385
ENCODING 901
SWIDTH 990 0
DWIDTH 11 0
BBX 9 3 1 9
BITMAP
C580
DD80
1800
ENDCHAR
STARTCHAR 0386
ENCODING 902
SWIDTH 990 0
DWIDTH 11 0
BBX 10 10 0 2
BITMAP
6E00
FF00
9100
71C0
71C0
71C0
7FC0
71C0
71C0
71C0
ENDCHAR
STARTCHAR 0387
ENCODING 903
SWIDTH 990 0
DWIDTH 11 0
BBX 3 3 3 5
BITMAP
E0
E0
E0
ENDCHAR
STARTCHAR 0388
ENCODING 904
SWIDTH 990 0
DWIDTH 11 0
BBX 11 10 0 2
BITMAP
7FE0
FC00
9C00
1C00
1F00
1C00
1C00
1C00
1FE0
1FE0
ENDCHAR
STARTCHAR 0389
ENCODING 905
SWIDTH 990 0
DWIDTH 11 0
BBX 11 10 0 2
BITMAP
7CE0
FCE0
9CE0
1CE0
1FE0
1CE0
1CE0
1CE0
1CE0
1CE0
ENDCHAR
STARTCHAR 038A
ENCODING 906
SWIDTH 990 0
DWIDTH 11 0
BBX 10 10 0 2
BITMAP
6FC0
EF00
8300
0300
0300
0300
0300
0300
03C0
0FC0
ENDCHAR
STARTCHAR 038C
ENCODING 908
SWIDTH 990 0
DWIDTH 11 0
BBX 11 10 0 2
BITMAP
6FC0
FCE0
9CE0
1CE0
1CE0
1CE0
1CE0
1CE0
1CC0
0FC0
ENDCHAR
STARTCHAR 038E
ENCODING 910
SWIDTH 990 0
DWIDTH 11 0
BBX 11 10 0 2
BITMAP
7CE0
FCE0
9CE0
1CE0
1FE0
0FC0
0300
0300
0300
0300
ENDCHAR
STARTCHAR 038F
ENCODING 911
SWIDTH 990 0
DWIDTH 11 0
BBX 11 10 0 2
BITMAP
6F00
FDC0
91C0
70E0
70E0
70E0
70E0
1DC0
1DE0
7DE0
ENDCHAR
STARTCHAR 0390
ENCODING 912
SWIDTH 990 0
DWIDTH 11 0
BBX 8 10 0 2
BITMAP
8D
9D
10
7C
7C
1C
1C
1C
1F
0F
ENDCHAR
STARTCHAR 0391
ENCODING 913
SWIDTH 990 0
DWIDTH 11 0
BBX 10 10 0 2
BITMAP
1E00
1300
7300
E1C0
E1C0
E1C0
FFC0
E1C0
E1C0
E1C0
ENDCHAR
STARTCHAR 0392
ENCODING 914
SWIDTH 990 0
DWIDTH 11 0
BBX 10 10 0 2
BITMAP
FF00
E1C0
E1C0
E1C0
FF00
E100
E1C0
E1C0
E100
FF00
ENDCHAR
STARTCHAR 0393
ENCODING 915
SWIDTH 990 0
DWIDTH 11 0
BBX 9 10 1 2
BITMAP
FF80
E000
E000
E000
E000
E000
E000
E000
E000
E000
ENDCHAR
STARTCHAR 0394
ENCODING 916
SWIDTH 990 0
DWIDTH 11 0
BBX 10 10 0 2
BITMAP
1E00
1300
7300
E1C0
E1C0
E1C0
E1C0
E1C0
E1C0
FFC0
ENDCHAR
STARTCHAR 0395
ENCODING 917
SWIDTH 990 0
DWIDTH 11 0
BBX 10 10 0 2
BITMAP
FFC0
E000
E000
E000
FF00
E000
E000
E000
FFC0
FFC0
ENDCHAR
STARTCHAR 0396
ENCODING 918
SWIDTH 990 0
DWIDTH 11 0
BBX 10 10 0 2
BITMAP
FFC0
FFC0
03C0
0F00
1E00
1E00
7C00
F000
FFC0
FFC0
ENDCHAR
STARTCHAR 0397
ENCODING 919
SWIDTH 990 0
DWIDTH 11 0
BBX 10 10 0 2
BITMAP
E1C0
E1C0
E1C0
E1C0
FFC0
E1C0
E1C0
E1C0
E1C0
E1C0
ENDCHAR
STARTCHAR 0398
ENCODING 920
SWIDTH 990 0
DWIDTH 11 0
BBX 10 10 0 2
BITMAP
7F00
E1C0
E1C0
E1C0
FFC0
E1C0
E1C0
E1C0
E100
7F00
ENDCHAR
STARTCHAR 0399
ENCODING 921
SWIDTH 990 0
DWIDTH 11 0
BBX 9 10 1 2
BITMAP
FF80
FC00
1C00
1C00
1C00
1C00
1C00
1C00
1F80
FF80
ENDCHAR
STARTCHAR 039A
ENCODING 922
SWIDTH 990 0
DWIDTH 11 0
BBX 10 10 0 2
BITMAP
E1C0
E300
E300
EE00
FC00
FC00
FE00
EF00
EFC0
E3C0
ENDCHAR
STARTCHAR 039B
ENCODING 923
SWIDTH 990 0
DWIDTH 11 0
BBX 10 10 0 2
BITMAP
1E00
1300
7300
E1C0
E1C0
E1C0
E1C0
E1C0
E1C0
E1C0
ENDCHAR
STARTCHAR 039C
ENCODING 924
SWIDTH 990 0
DWIDTH 11 0
BBX 10 10 0 2
BITMAP
E1C0
F3C0
F3C0
FFC0
EDC0
EDC0
EDC0
E1C0
E1C0
E1C0
ENDCHAR
STARTCHAR 039D
ENCODING 925
SWIDTH 990 0
DWIDTH 11 0
BBX 10 10 0 2
BITMAP
E1C0
F1C0
F1C0
FDC0
EFC0
EFC0
E3C0
E1C0
E1C0
E1C0
ENDCHAR
STARTCHAR 039E
ENCODING 926
SWIDTH 990 0
DWIDTH 11 0
BBX 10 10 0 2
BITMAP
FFC0
FFC0
0000
0000
7F00
7F00
0000
0000
FFC0
FFC0
ENDCHAR
STARTCHAR 039F
ENCODING 927
SWIDTH 990 0
DWIDTH 11 0
BBX 10 10 0 2
BITMAP
7F00
E1C0
E1C0
E1C0
E1C0
E1C0
E1C0
E1C0
E100
7F00
ENDCHAR
STARTCHAR 03A0
ENCODING 928
SWIDTH 990 0
DWIDTH 11 0
BBX 10 10 0 2
BITMAP
FFC0
E1C0
E1C0
E1C0
E1C0
E1C0
E1C0
E1C0
E1C0
E1C0
ENDCHAR
STARTCHAR 03A1
ENCODING 929
SWIDTH 990 0
DWIDTH 11 0
BBX 10 10 0 2
BITMAP
FF00
E1C0
E1C0
E1C0
E1C0
E100
FF00
E000
E000
E000
ENDCHAR
STARTCHAR 03A3
ENCODING 931
SWIDTH 990 0
DWIDTH 11 0
BBX 10 10 0 2
BITMAP
FFC0
F1C0
71C0
1C00
0F00
0C00
1C00
71C0
71C0
FFC0
ENDCHAR
STARTCHAR 03A4
ENCODING 932
SWIDTH 990 0
DWIDTH 11 0
BBX 9 10 1 2
BITMAP
FF80
FC00
1C00
1C00
1C00
1C00
1C00
1C00
1C00
1C00
ENDCHAR
STARTCHAR 03A5
ENCODING 933
SWIDTH 990 0
DWIDTH 11 0
BBX 9 10 1 2
BITMAP
E380
E380
E380
E380
FF80
3E00
1C00
1C00
1C00
1C00
ENDCHAR
STARTCHAR 03A6
ENCODING 934
SWIDTH 990 0
DWIDTH 11 0
BBX 10 10 0 2
BITMAP
0C00
7F00
6D00
EDC0
EDC0
EDC0
EDC0
7F00
7C00
0C00
ENDCHAR
STARTCHAR 03A7
ENCODING 935
SWIDTH 990 0
DWIDTH 11 0
BBX 10 10 0 2
BITMAP
E1C0
E1C0
E1C0
7300
1E00
1200
7300
E1C0
E1C0
E1C0
ENDCHAR
STARTCHAR 03A8
ENCODING 936
SWIDTH 990 0
DWIDTH 11 0
BBX 11 10 0 2
BITMAP
EEE0
EEE0
EEE0
EEE0
FFE0
7E00
0E00
0E00
0F00
1F00
ENDCHAR
STARTCHAR 03A9
ENCODING 937
SWIDTH 990 0
DWIDTH 11 0
BBX 10 10 0 2
BITMAP
1E00
1300
7300
E1C0
E1C0
E1C0
E1C0
7300
73C0
F3C0
ENDCHAR
STARTCHAR 03AA
ENCODING 938
SWIDTH 990 0
DWIDTH 11 0
BBX 9 10 1 2
BITMAP
E380
E380
0000
FF80
FC00
1C00
1C00
1C00
1F80
FF80
ENDCHAR
STARTCHAR 03AB
ENCODING 939
SWIDTH 990 0
DWIDTH 11 0
BBX 9 10 1 2
BITMAP
E380
E380
0000
E380
E380
E380
3E00
1C00
1C00
1C00
ENDCHAR
STARTCHAR 03AC
ENCODING 940
SWIDTH 990 0
DWIDTH 11 0
BBX 10 10 0 2
BITMAP
0200
0E00
0C00
7FC0
E1C0
E1C0
E1C0
E1C0
61C0
7FC0
ENDCHAR
STARTCHAR 03AD
ENCODING 941
SWIDTH 990 0
DWIDTH 11 0
BBX 10 10 0 2
BITMAP
0200
0E00
0C00
7FC0
E000
FF00
7F00
E000
FFC0
7FC0
ENDCHAR
STARTCHAR 03AE
ENCODING 942
SWIDTH 990 0
DWIDTH 11 0
BBX 10 12 0 0
BITMAP
0200
0E00
0C00
EF00
FFC0
71C0
71C0
71C0
71C0
71C0
01C0
01C0
ENDCHAR
STARTCHAR 03AF
ENCODING 943
SWIDTH 990 0
DWIDTH 11 0
BBX 7 10 1 2
BITMAP
18
38
20
F8
F8
38
38
38
3E
1E
ENDCHAR
STARTCHAR 03B0
ENCODING 944
SWIDTH 990 0
DWIDTH 11 0
BBX 10 10 0 2
BITMAP
8D00
9D00
1000
E300
F3C0
71C0
71C0
71C0
1100
1F00
ENDCHAR
STARTCHAR 03B1
ENCODING 945
SWIDTH 990 0
DWIDTH 11 0
BBX 10 7 0 2
BITMAP
7FC0
E1C0
E1C0
E1C0
E1C0
61C0
7FC0
ENDCHAR
STARTCHAR 03B2
ENCODING 946
SWIDTH 990 0
DWIDTH 11 0
BBX 10 12 0 0
BITMAP
7F00
E1C0
E1C0
E1C0
E100
FF00
E1C0
E1C0
E100
FF00
E000
E000
ENDCHAR
STARTCHAR 03B3
ENCODING 947
SWIDTH 990 0
DWIDTH 11 0
BBX 10 9 0 0
BITMAP
E1C0
E1C0
71C0
71C0
1F00
1F00
0E00
0E00
0E00
ENDCHAR
STARTCHAR 03B4
ENCODING 948
SWIDTH 990 0
DWIDTH 11 0
BBX 10 10 0 2
BITMAP
03C0
0E00
0E00
0300
7FC0
61C0
E1C0
E1C0
E100
7F00
ENDCHAR
STARTCHAR 03B5
ENCODING 949
SWIDTH 990 0
DWIDTH 11 0
BBX 10 7 0 2
BITMAP
7FC0
E000
FF00
7F00
E000
FFC0
7FC0
ENDCHAR
STARTCHAR 03B6
ENCODING 950
SWIDTH 990 0
DWIDTH 11 0
BBX 10 12 0 0
BITMAP
7F00
7C00
1C00
7000
7000
E000
E000
FF00
7FC0
01C0
0100
0300
ENDCHAR
STARTCHAR 03B7
ENCODING 951
SWIDTH 990 0
DWIDTH 11 0
BBX 10 9 0 0
BITMAP
EF00
FFC0
71C0
71C0
71C0
71C0
71C0
01C0
01C0
ENDCHAR
STARTCHAR 03B8
ENCODING 952
SWIDTH 990 0
DWIDTH 11 0
BBX 10 10 0 2
BITMAP
1E00
7300
7300
E1C0
FFC0
E1C0
E1C0
7300
7200
1E00
ENDCHAR
STARTCHAR 03B9
ENCODING 953
SWIDTH 990 0
DWIDTH 11 0
BBX 7 7 1 2
BITMAP
F8
F8
38
38
38
3E
1E
ENDCHAR
STARTCHAR 03BA
ENCODING 954
SWIDTH 990 0
DWIDTH 11 0
BBX 10 7 0 2
BITMAP
E1C0
E300
E200
FE00
E300
E1C0
E1C0
ENDCHAR
STARTCHAR 03BB
ENCODING 955
SWIDTH 990 0
DWIDTH 11 0
BBX 10 10 0 2
BITMAP
E000
F000
7000
1C00
1E00
1E00
7300
E1C0
E1C0
E1C0
ENDCHAR
STARTCHAR 03BC
ENCODING 956
SWIDTH 990 0
DWIDTH 11 0
BBX 10 9 0 0
BITMAP
E300
E300
E300
E300
E300
FFC0
FDC0
E000
E000
ENDCHAR
STARTCHAR 03BD
ENCODING 957
SWIDTH 990 0
DWIDTH 11 0
BBX 10 7 0 2
BITMAP
E1C0
F1C0
71C0
71C0
1F00
0E00
0E00
ENDCHAR
STARTCHAR 03BE
ENCODING 958
SWIDTH 990 0
DWIDTH 11 0
BBX 8 12 0 0
BITMAP
FF
F0
70
1E
10
70
E0
FE
7F
03
02
0E
ENDCHAR
STARTCHAR 03BF
ENCODING 959
SWIDTH 990 0
DWIDTH 11 0
BBX 10 7 0 2
BITMAP
7F00
E1C0
E1C0
E1C0
E1C0
6100
7F00
ENDCHAR
STARTCHAR 03C0
ENCODING 960
SWIDTH 990 0
DWIDTH 11 0
BBX 10 7 0 2
BITMAP
FFC0
F300
7300
7300
7300
73C0
F1C0
ENDCHAR
STARTCHAR 03C1
ENCODING 961
SWIDTH 990 0
DWIDTH 11 0
BBX 10 9 0 0
BITMAP
7F00
6100
E1C0
E1C0
E100
FF00
E000
E000
E000
ENDCHAR
STARTCHAR 03C2
ENCODING 962
SWIDTH 990 0
DWIDTH 11 0
BBX 10 9 0 0
BITMAP
7F00
6000
E000
E000
FF00
7FC0
01C0
0100
7F00
ENDCHAR
STARTCHAR 03C3
ENCODING 963
SWIDTH 990 0
DWIDTH 11 0
BBX 10 7 0 2
BITMAP
7FC0
6E00
EE00
E300
E300
E200
7E00
ENDCHAR
STARTCHAR 03C4
ENCODING 964
SWIDTH 990 0
DWIDTH 11 0
BBX 9 7 1 2
BITMAP
FF80
FC00
1C00
1C00
1C00
1F80
0780
ENDCHAR
STARTCHAR 03C5
ENCODING 965
SWIDTH 990 0
DWIDTH 11 0
BBX 10 7 0 2
BITMAP
E300
F3C0
71C0
71C0
71C0
1100
1F00
ENDCHAR
STARTCHAR 03C6
ENCODING 966
SWIDTH 990 0
DWIDTH 11 0
BBX 10 9 0 0
BITMAP
6300
6300
EDC0
EDC0
EDC0
ED00
7F00
0C00
0C00
ENDCHAR
STARTCHAR 03C7
ENCODING 967
SWIDTH 990 0
DWIDTH 11 0
BBX 10 9 0 0
BITMAP
E1C0
E100
7300
1E00
1300
7300
E1C0
E1C0
E1C0
ENDCHAR
STARTCHAR 03C8
ENCODING 968
SWIDTH 990 0
DWIDTH 11 0
BBX 11 11 0 0
BITMAP
0E00
0E00
EEE0
EEE0
EEE0
EEE0
EEE0
EEE0
7FC0
0E00
0E00
ENDCHAR
STARTCHAR 03C9
ENCODING 969
SWIDTH 990 0
DWIDTH 11 0
BBX 10 7 0 2
BITMAP
6100
EDC0
EDC0
EDC0
EDC0
7100
7300
ENDCHAR
STARTCHAR 03CA
ENCODING 970
SWIDTH 990 0
DWIDTH 11 0
BBX 8 10 0 2
BITMAP
EE
EE
00
7C
7C
1C
1C
1C
1F
0F
ENDCHAR
STARTCHAR 03CB
ENCODING 971
SWIDTH 990 0
DWIDTH 11 0
BBX 10 10 0 2
BITMAP
7300
7300
0000
E300
F3C0
71C0
71C0
71C0
1100
1F00
ENDCHAR
STARTCHAR 03CC
ENCODING 972
SWIDTH 990 0
DWIDTH 11 0
BBX 10 10 0 2
BITMAP
0200
0E00
0C00
7F00
E1C0
E1C0
E1C0
E1C0
6100
7F00
ENDCHAR
STARTCHAR 03CD
ENCODING 973
SWIDTH 990 0
DWIDTH 11 0
BBX 10 10 0 2
BITMAP
0200
0E00
0C00
E300
F3C0
71C0
71C0
71C0
1100
1F00
ENDCHAR
STARTCHAR 03CE
ENCODING 974
SWIDTH 990 0
DWIDTH 11 0
BBX 10 10 0 2
BITMAP
0200
0E00
0C00
6100
EDC0
EDC0
EDC0
EDC0
7100
7300
ENDCHAR
STARTCHAR 0400
ENCODING 1024
SWIDTH 990 0
DWIDTH 11 0
BBX 10 10 0 2
BITMAP
1000
1C00
0C00
FFC0
E000
FF00
FF00
E000
FFC0
FFC0
ENDCHAR
STARTCHAR 0401
ENCODING 1025
SWIDTH 990 0
DWIDTH 11 0
BBX 10 10 0 2
BITMAP
7300
7300
0000
FFC0
E000
FF00
FF00
E000
FFC0
FFC0
ENDCHAR
STARTCHAR 0402
ENCODING 1026
SWIDTH 990 0
DWIDTH 11 0
BBX 10 12 0 0
BITMAP
FE00
F000
7000
7F00
71C0
71C0
71C0
71C0
71C0
71C0
0100
0300
ENDCHAR
STARTCHAR 0403
ENCODING 1027
SWIDTH 990 0
DWIDTH 11 0
BBX 9 10 1 2
BITMAP
0400
1C00
1800
FF80
E180
E180
E000
E000
E000
E000
ENDCHAR
STARTCHAR 0404
ENCODING 1028
SWIDTH 990 0
DWIDTH 11 0
BBX 10 10 0 2
BITMAP
1F00
71C0
61C0
E000
FF00
E000
E000
71C0
7100
1F00
ENDCHAR
STARTCHAR 0405
ENCODING 1029
SWIDTH 990 0
DWIDTH 11 0
BBX 10 10 0 2
BITMAP
7F00
E1C0
E1C0
E000
7F00
7F00
01C0
E1C0
E100
7F00
ENDCHAR
STARTCHAR 0406
ENCODING 1030
SWIDTH 990 0
DWIDTH 11 0
BBX 9 10 1 2
BITMAP
FF80
FC00
1C00
1C00
1C00
1C00
1C00
1C00
1F80
FF80
ENDCHAR
STARTCHAR 0407
ENCODING 1031
SWIDTH 990 0
DWIDTH 11 0
BBX 9 10 1 2
BITMAP
E380
E380
0000
FF80
FC00
1C00
1C00
1C00
1F80
FF80
ENDCHAR
STARTCHAR 0408
ENCODING 1032
SWIDTH 990 0
DWIDTH 11 0
BBX 10 10 0 2
BITMAP
01C0
01C0
01C0
01C0
01C0
01C0
01C0
E1C0
E1C0
7F00
ENDCHAR
STARTCHAR 0409
ENCODING 1033
SWIDTH 990 0
DWIDTH 11 0
BBX 10 10 0 2
BITMAP
7E00
6E00
6E00
6FC0
6EC0
6EC0
6EC0
EEC0
EEC0
EFC0
ENDCHAR
STARTCHAR 040A
ENCODING 1034
SWIDTH 990 0
DWIDTH 11 0
BBX 10 10 0 2
BITMAP
EE00
EE00
EE00
EFC0
FEC0
EEC0
EEC0
EEC0
EEC0
EFC0
ENDCHAR
STARTCHAR 040B
ENCODING 1035
SWIDTH 990 0
DWIDTH 11 0
BBX 10 10 0 2
BITMAP
FE00
F000
7000
7F00
71C0
71C0
71C0
71C0
71C0
71C0
ENDCHAR
STARTCHAR 040C
ENCODING 1036
SWIDTH 990 0
DWIDTH 11 0
BBX 10 10 0 2
BITMAP
0200
0E00
0C00
E1C0
E3C0
E200
FF00
E1C0
E1C0
E1C0
ENDCHAR
STARTCHAR 040D
ENCODING 1037
SWIDTH 990 0
DWIDTH 11 0
BBX 10 10 0 2
BITMAP
1000
1C00
0C00
E1C0
E3C0
E3C0
EFC0
FDC0
FDC0
F1C0
ENDCHAR
STARTCHAR 040E
ENCODING 1038
SWIDTH 990 0
DWIDTH 11 0
BBX 10 12 0 0
BITMAP
7F00
7F00
0000
E1C0
E1C0
E1C0
E1C0
61C0
7FC0
01C0
0100
7F00
ENDCHAR
STARTCHAR 040F
ENCODING 1039
SWIDTH 990 0
DWIDTH 11 0
BBX 10 12 0 0
BITMAP
E1C0
E1C0
E1C0
E1C0
E1C0
E1C0
E1C0
E1C0
E1C0
FFC0
0C00
0C00
ENDCHAR
STARTCHAR 0410
ENCODING 1040
SWIDTH 990 0
DWIDTH 11 0
BBX 10 10 0 2
BITMAP
1E00
1300
7300
E1C0
E1C0
E1C0
FFC0
E1C0
E1C0
E1C0
ENDCHAR
STARTCHAR 0411
ENCODING 1041
SWIDTH 990 0
DWIDTH 11 0
BBX 10 10 0 2
BITMAP
FF00
E000
E000
E000
FF00
E100
E1C0
E1C0
E100
FF00
ENDCHAR
STARTCHAR 0412
ENCODING 1042
SWIDTH 990 0
DWIDTH 11 0
BBX 10 10 0 2
BITMAP
FF00
E1C0
E1C0
E1C0
FF00
E100
E1C0
E1C0
E100
FF00
ENDCHAR
STARTCHAR 0413
ENCODING 1043
SWIDTH 990 0
DWIDTH 11 0
BBX 9 10 1 2
BITMAP
FF80
E180
E180
E000
E000
E000
E000
E000
E000
E000
ENDCHAR
STARTCHAR 0414
ENCODING 1044
SWIDTH 990 0
DWIDTH 11 0
BBX 11 12 0 0
BITMAP
1FC0
11C0
11C0
11C0
11C0
11C0
71C0
71C0
71E0
FFE0
E0E0
E0E0
ENDCHAR
STARTCHAR 0415
ENCODING 1045
SWIDTH 990 0
DWIDTH 11 0
BBX 10 10 0 2
BITMAP
FFC0
E000
E000
E000
FF00
E000
E000
E000
FFC0
FFC0
ENDCHAR
STARTCHAR 0416
ENCODING 1046
SWIDTH 990 0
DWIDTH 11 0
BBX 10 10 0 2
BITMAP
EDC0
EDC0
EDC0
6D00
1E00
1C00
6D00
EDC0
EDC0
EDC0
ENDCHAR
STARTCHAR 0417
ENCODING 1047
SWIDTH 990 0
DWIDTH 11 0
BBX 10 10 0 2
BITMAP
7F00
E1C0
E1C0
01C0
1F00
1F00
01C0
E1C0
E100
7F00
ENDCHAR
STARTCHAR 0418
ENCODING 1048
SWIDTH 990 0
DWIDTH 11 0
BBX 10 10 0 2
BITMAP
E1C0
E1C0
E1C0
E3C0
EFC0
EFC0
FDC0
F1C0
F1C0
E1C0
ENDCHAR
STARTCHAR 0419
ENCODING 1049
SWIDTH 990 0
DWIDTH 11 0
BBX 10 10 0 2
BITMAP
7F00
7F00
0000
E1C0
E3C0
E3C0
EFC0
FDC0
FDC0
F1C0
ENDCHAR
STARTCHAR 041A
ENCODING 1050
SWIDTH 990 0
DWIDTH 11 0
BBX 10 10 0 2
BITMAP
E1C0
E300
E300
EC00
FE00
E300
E300
E300
E1C0
E1C0
ENDCHAR
STARTCHAR 041B
ENCODING 1051
SWIDTH 990 0
DWIDTH 11 0
BBX 10 10 0 2
BITMAP
1FC0
11C0
11C0
11C0
11C0
11C0
71C0
F1C0
E1C0
E1C0
ENDCHAR
STARTCHAR 041C
ENCODING 1052
SWIDTH 990 0
DWIDTH 11 0
BBX 10 10 0 2
BITMAP
E1C0
F3C0
F3C0
FFC0
EDC0
EDC0
EDC0
E1C0
E1C0
E1C0
ENDCHAR
STARTCHAR 041D
ENCODING 1053
SWIDTH 990 0
DWIDTH 11 0
BBX 10 10 0 2
BITMAP
E1C0
E1C0
E1C0
E1C0
FFC0
E1C0
E1C0
E1C0
E1C0
E1C0
ENDCHAR
STARTCHAR 041E
ENCODING 1054
SWIDTH 990 0
DWIDTH 11 0
BBX 10 10 0 2
BITMAP
7F00
E1C0
E1C0
E1C0
E1C0
E1C0
E1C0
E1C0
E100
7F00
ENDCHAR
STARTCHAR 041F
ENCODING 1055
SWIDTH 990 0
DWIDTH 11 0
BBX 10 10 0 2
BITMAP
FFC0
E1C0
E1C0
E1C0
E1C0
E1C0
E1C0
E1C0
E1C0
E1C0
ENDCHAR
STARTCHAR 0420
ENCODING 1056
SWIDTH 990 0
DWIDTH 11 0
BBX 10 10 0 2
BITMAP
FF00
E1C0
E1C0
E1C0
E1C0
E100
FF00
E000
E000
E000
ENDCHAR
STARTCHAR 0421
ENCODING 1057
SWIDTH 990 0
DWIDTH 11 0
BBX 10 10 0 2
BITMAP
1F00
71C0
61C0
E000
E000
E000
E000
71C0
7100
1F00
ENDCHAR
STARTCHAR 0422
ENCODING 1058
SWIDTH 990 0
DWIDTH 11 0
BBX 9 10 1 2
BITMAP
FF80
FC00
1C00
1C00
1C00
1C00
1C00
1C00
1C00
1C00
ENDCHAR
STARTCHAR 0423
ENCODING 1059
SWIDTH 990 0
DWIDTH 11 0
BBX 10 10 0 2
BITMAP
E1C0
E1C0
E1C0
E1C0
FFC0
7FC0
01C0
E1C0
E100
7F00
ENDCHAR
STARTCHAR 0424
ENCODING 1060
SWIDTH 990 0
DWIDTH 11 0
BBX 10 10 0 2
BITMAP
0C00
7F00
6D00
EDC0
EDC0
EDC0
EDC0
7F00
7C00
0C00
ENDCHAR
STARTCHAR 0425
ENCODING 1061
SWIDTH 990 0
DWIDTH 11 0
BBX 10 10 0 2
BITMAP
E1C0
E1C0
E1C0
7300
1E00
1200
7300
E1C0
E1C0
E1C0
ENDCHAR
STARTCHAR 0426
ENCODING 1062
SWIDTH 990 0
DWIDTH 11 0
BBX 10 12 0 0
BITMAP
E300
E300
E300
E300
E300
E300
E300
E300
E3C0
FFC0
01C0
01C0
ENDCHAR
STARTCHAR 0427
ENCODING 1063
SWIDTH 990 0
DWIDTH 11 0
BBX 10 10 0 2
BITMAP
E1C0
E1C0
E1C0
E1C0
FFC0
7FC0
01C0
01C0
01C0
01C0
ENDCHAR
STARTCHAR 0428
ENCODING 1064
SWIDTH 990 0
DWIDTH 11 0
BBX 10 10 0 2
BITMAP
EDC0
EDC0
EDC0
EDC0
EDC0
EDC0
EDC0
EDC0
EDC0
FFC0
ENDCHAR
STARTCHAR 0429
ENCODING 1065
SWIDTH 990 0
DWIDTH 11 0
BBX 11 12 0 0
BITMAP
EDC0
EDC0
EDC0
EDC0
EDC0
EDC0
EDC0
EDC0
EDE0
FFE0
00E0
00E0
ENDCHAR
STARTCHAR 042A
ENCODING 1066
SWIDTH 990 0
DWIDTH 11 0
BBX 10 10 0 2
BITMAP
F000
F000
7000
7F00
71C0
71C0
71C0
71C0
7100
7F00
ENDCHAR
STARTCHAR 042B
ENCODING 1067
SWIDTH 990 0
DWIDTH 11 0
BBX 10 10 0 2
BITMAP
E1C0
E1C0
E1C0
FDC0
EDC0
EDC0
EDC0
EDC0
EDC0
FDC0
ENDCHAR
STARTCHAR 042C
ENCODING 1068
SWIDTH 990 0
DWIDTH 11 0
BBX 10 10 0 2
BITMAP
E000
E000
E000
FF00
E1C0
E1C0
E1C0
E1C0
E100
FF00
ENDCHAR
STARTCHAR 042D
ENCODING 1069
SWIDTH 990 0
DWIDTH 11 0
BBX 10 10 0 2
BITMAP
7E00
E300
E300
01C0
7FC0
7FC0
01C0
E300
E200
7E00
ENDCHAR
STARTCHAR 042E
ENCODING 1070
SWIDTH 990 0
DWIDTH 11 0
BBX 10 10 0 2
BITMAP
8F00
9DC0
9DC0
9DC0
FDC0
9DC0
9DC0
9DC0
9D00
8F00
ENDCHAR
STARTCHAR 042F
ENCODING 1071
SWIDTH 990 0
DWIDTH 11 0
BBX 10 10 0 2
BITMAP
7FC0
E1C0
E1C0
E1C0
F1C0
F1C0
1FC0
71C0
71C0
F1C0
ENDCHAR
STARTCHAR 0430
ENCODING 1072
SWIDTH 990 0
DWIDTH 11 0
BBX 10 7 0 2
BITMAP
7F00
7FC0
01C0
7FC0
E1C0
E1C0
7FC0
ENDCHAR
STARTCHAR 0431
ENCODING 1073
SWIDTH 990 0
DWIDTH 11 0
BBX 10 10 0 2
BITMAP
FFC0
E000
E000
EF00
FFC0
E1C0
E1C0
E1C0
6100
7F00
ENDCHAR
STARTCHAR 0432
ENCODING 1074
SWIDTH 990 0
DWIDTH 11 0
BBX 10 7 0 2
BITMAP
FF00
E1C0
E100
FF00
E1C0
E100
FF00
ENDCHAR
STARTCHAR 0433
ENCODING 1075
SWIDTH 990 0
DWIDTH 11 0
BBX 9 7 1 2
BITMAP
FF80
E180
E180
E000
E000
E000
E000
ENDCHAR
STARTCHAR 0434
ENCODING 1076
SWIDTH 990 0
DWIDTH 11 0
BBX 11 9 0 0
BITMAP
1FC0
11C0
11C0
11C0
71C0
71E0
FFE0
E0E0
E0E0
ENDCHAR
STARTCHAR 0435
ENCODING 1077
SWIDTH 990 0
DWIDTH 11 0
BBX 10 7 0 2
BITMAP
7F00
E1C0
E1C0
FFC0
E000
7F00
7F00
ENDCHAR
STARTCHAR 0436
ENCODING 1078
SWIDTH 990 0
DWIDTH 11 0
BBX 10 7 0 2
BITMAP
EDC0
EDC0
EDC0
7F00
EDC0
EDC0
EDC0
ENDCHAR
STARTCHAR 0437
ENCODING 1079
SWIDTH 990 0
DWIDTH 11 0
BBX 10 7 0 2
BITMAP
7F00
E1C0
E100
0F00
E1C0
E100
7F00
ENDCHAR
STARTCHAR 0438
ENCODING 1080
SWIDTH 990 0
DWIDTH 11 0
BBX 10 7 0 2
BITMAP
E1C0
E3C0
EFC0
EDC0
F1C0
E1C0
E1C0
ENDCHAR
STARTCHAR 0439
ENCODING 1081
SWIDTH 990 0
DWIDTH 11 0
BBX 10 10 0 2
BITMAP
7F00
7F00
0000
E1C0
E3C0
EFC0
EDC0
F1C0
E1C0
E1C0
ENDCHAR
STARTCHAR 043A
ENCODING 1082
SWIDTH 990 0
DWIDTH 11 0
BBX 10 7 0 2
BITMAP
E1C0
E3C0
E200
FF00
E1C0
E1C0
E1C0
ENDCHAR
STARTCHAR 043B
ENCODING 1083
SWIDTH 990 0
DWIDTH 11 0
BBX 10 7 0 2
BITMAP
1FC0
11C0
11C0
71C0
F1C0
E1C0
E1C0
ENDCHAR
STARTCHAR 043C
ENCODING 1084
SWIDTH 990 0
DWIDTH 11 0
BBX 10 7 0 2
BITMAP
E1C0
F3C0
E3C0
EDC0
EDC0
EDC0
E1C0
ENDCHAR
STARTCHAR 043D
ENCODING 1085
SWIDTH 990 0
DWIDTH 11 0
BBX 10 7 0 2
BITMAP
E1C0
E1C0
E1C0
FFC0
E1C0
E1C0
E1C0
ENDCHAR
STARTCHAR 043E
ENCODING 1086
SWIDTH 990 0
DWIDTH 11 0
BBX 10 7 0 2
BITMAP
7F00
E1C0
E1C0
E1C0
E1C0
6100
7F00
ENDCHAR
STARTCHAR 043F
ENCODING 1087
SWIDTH 990 0
DWIDTH 11 0
BBX 10 7 0 2
BITMAP
FFC0
E1C0
E1C0
E1C0
E1C0
E1C0
E1C0
ENDCHAR
STARTCHAR 0440
ENCODING 1088
SWIDTH 990 0
DWIDTH 11 0
BBX 10 9 0 0
BITMAP
EF00
EF00
F1C0
E1C0
E1C0
E100
FF00
E000
E000
ENDCHAR
STARTCHAR 0441
ENCODING 1089
SWIDTH 990 0
DWIDTH 11 0
BBX 10 7 0 2
BITMAP
7F00
E1C0
E1C0
E000
E1C0
E100
7F00
ENDCHAR
STARTCHAR 0442
ENCODING 1090
SWIDTH 990 0
DWIDTH 11 0
BBX 9 7 1 2
BITMAP
FF80
FC00
1C00
1C00
1C00
1C00
1C00
ENDCHAR
STARTCHAR 0443
ENCODING 1091
SWIDTH 990 0
DWIDTH 11 0
BBX 10 9 0 0
BITMAP
E1C0
E1C0
E1C0
E1C0
61C0
7FC0
01C0
0100
7F00
ENDCHAR
STARTCHAR 0444
ENCODING 1092
SWIDTH 990 0
DWIDTH 11 0
BBX 10 11 0 0
BITMAP
0C00
0C00
7F00
6D00
EDC0
EDC0
EDC0
ED00
7F00
0C00
0C00
ENDCHAR
STARTCHAR 0445
ENCODING 1093
SWIDTH 990 0
DWIDTH 11 0
BBX 10 7 0 2
BITMAP
E1C0
F300
7200
1E00
7300
61C0
E1C0
ENDCHAR
STARTCHAR 0446
ENCODING 1094
SWIDTH 990 0
DWIDTH 11 0
BBX 10 9 0 0
BITMAP
E300
E300
E300
E300
E300
E3C0
FFC0
01C0
01C0
ENDCHAR
STARTCHAR 0447
ENCODING 1095
SWIDTH 990 0
DWIDTH 11 0
BBX 10 7 0 2
BITMAP
E1C0
E1C0
E1C0
7FC0
01C0
01C0
01C0
ENDCHAR
STARTCHAR 0448
ENCODING 1096
SWIDTH 990 0
DWIDTH 11 0
BBX 10 7 0 2
BITMAP
EDC0
EDC0
EDC0
EDC0
EDC0
EDC0
FFC0
ENDCHAR
STARTCHAR 0449
ENCODING 1097
SWIDTH 990 0
DWIDTH 11 0
BBX 11 9 0 0
BITMAP
EDC0
EDC0
EDC0
EDC0
EDC0
EDE0
FFE0
00E0
00E0
ENDCHAR
STARTCHAR 044A
ENCODING 1098
SWIDTH 990 0
DWIDTH 11 0
BBX 10 7 0 2
BITMAP
F000
F000
7F00
7F00
71C0
7100
7F00
ENDCHAR
STARTCHAR 044B
ENCODING 1099
SWIDTH 990 0
DWIDTH 11 0
BBX 10 7 0 2
BITMAP
E1C0
E1C0
FDC0
FDC0
EDC0
EDC0
FDC0
ENDCHAR
STARTCHAR 044C
ENCODING 1100
SWIDTH 990 0
DWIDTH 11 0
BBX 10 7 0 2
BITMAP
E000
E000
FF00
FF00
E1C0
E100
FF00
ENDCHAR
STARTCHAR 044D
ENCODING 1101
SWIDTH 990 0
DWIDTH 11 0
BBX 10 7 0 2
BITMAP
7F00
E1C0
E1C0
0FC0
E1C0
E100
7F00
ENDCHAR
STARTCHAR 044E
ENCODING 1102
SWIDTH 990 0
DWIDTH 11 0
BBX 10 7 0 2
BITMAP
8F00
9DC0
9DC0
FDC0
9DC0
8D00
8F00
ENDCHAR
STARTCHAR 044F
ENCODING 1103
SWIDTH 990 0
DWIDTH 11 0
BBX 10 7 0 2
BITMAP
7FC0
E1C0
E1C0
7FC0
E1C0
E1C0
E1C0
ENDCHAR
STARTCHAR 0450
ENCODING 1104
SWIDTH 990 0
DWIDTH 11 0
BBX 10 10 0 2
BITMAP
1000
1C00
0C00
7F00
E1C0
E1C0
FFC0
E000
7F00
7F00
ENDCHAR
STARTCHAR 0451
ENCODING 1105
SWIDTH 990 0
DWIDTH 11 0
BBX 10 10 0 2
BITMAP
7300
7300
0000
7F00
E1C0
E1C0
FFC0
E000
7F00
7F00
ENDCHAR
STARTCHAR 0452
ENCODING 1106
SWIDTH 990 0
DWIDTH 11 0
BBX 10 12 0 0
BITMAP
7000
7E00
FE00
7000
7F00
7F00
71C0
71C0
71C0
71C0
0100
0300
ENDCHAR
STARTCHAR 0453
ENCODING 1107
SWIDTH 990 0
DWIDTH 11 0
BBX 9 10 1 2
BITMAP
0200
0600
0400
FF80
E180
E180
E000
E000
E000
E000
ENDCHAR
STARTCHAR 0454
ENCODING 1108
SWIDTH 990 0
DWIDTH 11 0
BBX 10 7 0 2
BITMAP
7F00
E1C0
FDC0
FC00
E1C0
E100
7F00
ENDCHAR
STARTCHAR 0455
ENCODING 1109
SWIDTH 990 0
DWIDTH 11 0
BBX 10 7 0 2
BITMAP
7F00
E000
FF00
7F00
01C0
0100
FF00
ENDCHAR
STARTCHAR 0456
ENCODING 1110
SWIDTH 990 0
DWIDTH 11 0
BBX 9 10 1 2
BITMAP
1C00
1C00
0000
3C00
3C00
1C00
1C00
1C00
1F80
FF80
ENDCHAR
STARTCHAR 0457
ENCODING 1111
SWIDTH 990 0
DWIDTH 11 0
BBX 9 10 1 2
BITMAP
E600
E600
0000
3C00
3C00
1C00
1C00
1C00
1F80
FF80
ENDCHAR
STARTCHAR 0458
ENCODING 1112
SWIDTH 990 0
DWIDTH 11 0
BBX 7 12 1 0
BITMAP
06
06
00
1E
1E
06
06
06
06
06
04
FC
ENDCHAR
STARTCHAR 0459
ENCODING 1113
SWIDTH 990 0
DWIDTH 11 0
BBX 10 7 0 2
BITMAP
7E00
6FC0
6EC0
6EC0
EEC0
EEC0
EFC0
ENDCHAR
STARTCHAR 045A
ENCODING 1114
SWIDTH 990 0
DWIDTH 11 0
BBX 10 7 0 2
BITMAP
EE00
EFC0
EEC0
FEC0
EEC0
EEC0
EFC0
ENDCHAR
STARTCHAR 045B
ENCODING 1115
SWIDTH 990 0
DWIDTH 11 0
BBX 10 10 0 2
BITMAP
7000
FE00
F000
7000
7F00
7100
71C0
71C0
71C0
71C0
ENDCHAR
STARTCHAR 045C
ENCODING 1116
SWIDTH 990 0
DWIDTH 11 0
BBX 10 10 0 2
BITMAP
0200
0E00
0C00
E1C0
E3C0
E200
FF00
E1C0
E1C0
E1C0
ENDCHAR
STARTCHAR 045D
ENCODING 1117
SWIDTH 990 0
DWIDTH 11 0
BBX 10 10 0 2
BITMAP
1000
1C00
0C00
E1C0
E3C0
EFC0
EDC0
F1C0
E1C0
E1C0
ENDCHAR
STARTCHAR 045E
ENCODING 1118
SWIDTH 990 0
DWIDTH 11 0
BBX 10 12 0 0
BITMAP
7F00
7F00
0000
E1C0
E1C0
E1C0
E1C0
61C0
7FC0
01C0
0100
7F00
ENDCHAR
STARTCHAR 045F
ENCODING 1119
SWIDTH 990 0
DWIDTH 11 0
BBX 10 9 0 0
BITMAP
E1C0
E1C0
E1C0
E1C0
E1C0
E1C0
FFC0
0C00
0C00
ENDCHAR
STARTCHAR 0462
ENCODING 1122
SWIDTH 990 0
DWIDTH 11 0
BBX 10 10 0 2
BITMAP
7000
FE00
F000
7000
7F00
7100
71C0
71C0
7100
7F00
ENDCHAR
STARTCHAR 0463
ENCODING 1123
SWIDTH 990 0
DWIDTH 11 0
BBX 10 10 0 2
BITMAP
7000
7000
7000
FE00
F000
7F00
7F00
71C0
7100
7F00
ENDCHAR
STARTCHAR 046A
ENCODING 1130
SWIDTH 990 0
DWIDTH 11 0
BBX 10 10 0 2
BITMAP
FFC0
80C0
80C0
6100
7F00
1C00
6D00
EDC0
EDC0
EDC0
ENDCHAR
STARTCHAR 046B
ENCODING 1131
SWIDTH 990 0
DWIDTH 11 0
BBX 10 7 0 2
BITMAP
FFC0
E100
7F00
1E00
EDC0
EDC0
EDC0
ENDCHAR
STARTCHAR 0472
ENCODING 1138
SWIDTH 990 0
DWIDTH 11 0
BBX 10 10 0 2
BITMAP
7F00
E1C0
E1C0
E1C0
9EC0
9EC0
E1C0
E1C0
E100
7F00
ENDCHAR
STARTCHAR 0473
ENCODING 1139
SWIDTH 990 0
DWIDTH 11 0
BBX 10 7 0 2
BITMAP
7F00
E1C0
9EC0
9EC0
E1C0
6100
7F00
ENDCHAR
STARTCHAR 0474
ENCODING 1140
SWIDTH 990 0
DWIDTH 11 0
BBX 10 10 0 2
BITMAP
E1C0
E1C0
E1C0
E100
E100
E100
7300
1E00
1E00
0C00
ENDCHAR
STARTCHAR 0475
ENCODING 1141
SWIDTH 990 0
DWIDTH 11 0
BBX 9 7 1 2
BITMAP
E380
E200
E200
E200
3E00
3C00
1C00
ENDCHAR
STARTCHAR 0490
ENCODING 1168
SWIDTH 990 0
DWIDTH 11 0
BBX 9 10 1 2
BITMAP
0380
FF80
FF80
E000
E000
E000
E000
E000
E000
E000
ENDCHAR
STARTCHAR 0491
ENCODING 1169
SWIDTH 990 0
DWIDTH 11 0
BBX 9 9 1 2
BITMAP
0380
0380
FF80
E000
E000
E000
E000
E000
E000
ENDCHAR
STARTCHAR 0492
ENCODING 1170
SWIDTH 990 0
DWIDTH 11 0
BBX 10 10 0 2
BITMAP
7FC0
70C0
70C0
7000
FE00
F000
7000
7000
7000
7000
ENDCHAR
STARTCHAR 0493
ENCODING 1171
SWIDTH 990 0
DWIDTH 11 0
BBX 10 7 0 2
BITMAP
7FC0
70C0
7EC0
FE00
7000
7000
7000
ENDCHAR
STARTCHAR 0494
ENCODING 1172
SWIDTH 990 0
DWIDTH 11 0
BBX 9 12 1 0
BITMAP
FF80
E180
E180
E000
FE00
FE00
E380
E380
E380
E380
0200
0600
ENDCHAR
STARTCHAR 0495
ENCODING 1173
SWIDTH 990 0
DWIDTH 11 0
BBX 9 9 1 0
BITMAP
FF80
E000
E000
FE00
E380
E380
E380
0200
0600
ENDCHAR
STARTCHAR 0496
ENCODING 1174
SWIDTH 990 0
DWIDTH 11 0
BBX 11 12 0 0
BITMAP
EDC0
EDC0
EDC0
6D00
6F00
1E00
6D00
EDC0
EDC0
EDE0
00E0
00E0
ENDCHAR
STARTCHAR 0497
ENCODING 1175
SWIDTH 990 0
DWIDTH 11 0
BBX 11 9 0 0
BITMAP
EDC0
EDC0
EDC0
7F00
EDC0
EDC0
EDE0
00E0
00E0
ENDCHAR
STARTCHAR 0498
ENCODING 1176
SWIDTH 990 0
DWIDTH 11 0
BBX 10 12 0 0
BITMAP
7F00
6100
E1C0
E1C0
0100
1F00
01C0
E1C0
E100
7F00
0C00
0C00
ENDCHAR
STARTCHAR 0499
ENCODING 1177
SWIDTH 990 0
DWIDTH 11 0
BBX 10 9 0 0
BITMAP
7F00
61C0
E1C0
0F00
EFC0
E100
7F00
0C00
0C00
ENDCHAR
STARTCHAR 049A
ENCODING 1178
SWIDTH 990 0
DWIDTH 11 0
BBX 10 12 0 0
BITMAP
E1C0
E100
E300
EC00
EC00
FE00
E300
E300
E300
E1C0
01C0
01C0
ENDCHAR
STARTCHAR 049B
ENCODING 1179
SWIDTH 990 0
DWIDTH 11 0
BBX 11 9 0 0
BITMAP
E1C0
E3C0
E200
FF00
E1C0
E1C0
E1E0
00E0
00E0
ENDCHAR
STARTCHAR 049C
ENCODING 1180
SWIDTH 990 0
DWIDTH 11 0
BBX 10 10 0 2
BITMAP
E1C0
E100
E100
ED00
FE00
EC00
ED00
E1C0
E1C0
E1C0
ENDCHAR
STARTCHAR 049D
ENCODING 1181
SWIDTH 990 0
DWIDTH 11 0
BBX 10 7 0 2
BITMAP
E1C0
ED00
EF00
FE00
EDC0
E1C0
E1C0
ENDCHAR
STARTCHAR 04A0
ENCODING 1184
SWIDTH 990 0
DWIDTH 11 0
BBX 10 10 0 2
BITMAP
F1C0
F100
7100
7200
7E00
7200
7300
7300
73C0
71C0
ENDCHAR
STARTCHAR 04A1
ENCODING 1185
SWIDTH 990 0
DWIDTH 11 0
BBX 10 7 0 2
BITMAP
F1C0
F3C0
7200
7F00
71C0
71C0
71C0
ENDCHAR
STARTCHAR 04A2
ENCODING 1186
SWIDTH 990 0
DWIDTH 11 0
BBX 11 12 0 0
BITMAP
E1C0
E1C0
E1C0
E1C0
E1C0
FFC0
E1C0
E1C0
E1C0
E1E0
00E0
00E0
ENDCHAR
STARTCHAR 04A3
ENCODING 1187
SWIDTH 990 0
DWIDTH 11 0
BBX 11 9 0 0
BITMAP
E1C0
E1C0
E1C0
FFC0
E1C0
E1C0
E1E0
00E0
00E0
ENDCHAR
STARTCHAR 04A4
ENCODING 1188
SWIDTH 990 0
DWIDTH 11 0
BBX 10 10 0 2
BITMAP
EFC0
EEC0
EEC0
EE00
FE00
EE00
EE00
EE00
EE00
EE00
ENDCHAR
STARTCHAR 04A5
ENCODING 1189
SWIDTH 990 0
DWIDTH 11 0
BBX 10 7 0 2
BITMAP
EFC0
EEC0
EEC0
FE00
EE00
EE00
EE00
ENDCHAR
STARTCHAR 04AA
ENCODING 1194
SWIDTH 990 0
DWIDTH 11 0
BBX 10 12 0 0
BITMAP
1F00
11C0
71C0
E000
E000
E000
E000
71C0
7100
1F00
0E00
0E00
ENDCHAR
STARTCHAR 04AB
ENCODING 1195
SWIDTH 990 0
DWIDTH 11 0
BBX 10 9 0 0
BITMAP
7F00
61C0
E1C0
E000
E1C0
E100
7F00
0C00
0C00
ENDCHAR
STARTCHAR 04AC
ENCODING 1196
SWIDTH 990 0
DWIDTH 11 0
BBX 9 12 1 0
BITMAP
FF80
FC00
1C00
1C00
1C00
1C00
1C00
1C00
1C00
1E00
0600
0600
ENDCHAR
STARTCHAR 04AD
ENCODING 1197
SWIDTH 990 0
DWIDTH 11 0
BBX 9 9 1 0
BITMAP
FF80
FC00
1C00
1C00
1C00
1C00
1E00
0600
0600
ENDCHAR
STARTCHAR 04AE
ENCODING 1198
SWIDTH 990 0
DWIDTH 11 0
BBX 9 10 1 2
BITMAP
E380
E380
E380
E380
FF80
3E00
1C00
1C00
1C00
1C00
ENDCHAR
STARTCHAR 04AF
ENCODING 1199
SWIDTH 990 0
DWIDTH 11 0
BBX 9 9 1 0
BITMAP
E380
E380
E380
E380
3E00
3E00
1C00
1C00
1C00
ENDCHAR
STARTCHAR 04B0
ENCODING 1200
SWIDTH 990 0
DWIDTH 11 0
BBX 9 10 1 2
BITMAP
E380
E380
E380
E380
FF80
3E00
1C00
3E00
3C00
1C00
ENDCHAR
STARTCHAR 04B1
ENCODING 1201
SWIDTH 990 0
DWIDTH 11 0
BBX 9 9 1 0
BITMAP
E380
E380
E380
3E00
1C00
1E00
3E00
1C00
1C00
ENDCHAR
STARTCHAR 04B6
ENCODING 1206
SWIDTH 990 0
DWIDTH 11 0
BBX 11 12 0 0
BITMAP
E1C0
E1C0
E1C0
E1C0
E1C0
7FC0
01C0
01C0
01C0
01E0
00E0
00E0
ENDCHAR
STARTCHAR 04B7
ENCODING 1207
SWIDTH 990 0
DWIDTH 11 0
BBX 11 9 0 0
BITMAP
E1C0
E1C0
E1C0
7FC0
7FC0
01C0
01E0
00E0
00E0
ENDCHAR
STARTCHAR 04B8
ENCODING 1208
SWIDTH 990 0
DWIDTH 11 0
BBX 10 10 0 2
BITMAP
E1C0
E1C0
E1C0
EDC0
FFC0
7DC0
0DC0
01C0
01C0
01C0
ENDCHAR
STARTCHAR 04B9
ENCODING 1209
SWIDTH 990 0
DWIDTH 11 0
BBX 10 7 0 2
BITMAP
E1C0
EDC0
EDC0
7FC0
0DC0
01C0
01C0
ENDCHAR
STARTCHAR 04BA
ENCODING 1210
SWIDTH 990 0
DWIDTH 11 0
BBX 10 10 1 2
BITMAP
E000
E000
E000
E000
FF80
E180
E1C0
E1C0
E1C0
E1C0
ENDCHAR
STARTCHAR 04BB
ENCODING 1211
SWIDTH 990 0
DWIDTH 11 0
BBX 10 10 0 2
BITMAP
E000
E000
E000
EF00
FFC0
E1C0
E1C0
E1C0
E1C0
E1C0
ENDCHAR
STARTCHAR 04C0
ENCODING 1216
SWIDTH 990 0
DWIDTH 11 0
BBX 9 10 1 2
BITMAP
FF80
FC00
1C00
1C00
1C00
1C00
1C00
1C00
1F80
FF80
ENDCHAR
STARTCHAR 04C1
ENCODING 1217
SWIDTH 990 0
DWIDTH 11 0
BBX 10 10 0 2
BITMAP
7F00
7F00
0000
EDC0
EDC0
EDC0
7F00
EDC0
EDC0
EDC0
ENDCHAR
STARTCHAR 04C2
ENCODING 1218
SWIDTH 990 0
DWIDTH 11 0
BBX 10 10 0 2
BITMAP
7F00
7F00
0000
EDC0
EDC0
EDC0
7F00
EDC0
EDC0
EDC0
ENDCHAR
STARTCHAR 04CB
ENCODING 1227
SWIDTH 990 0
DWIDTH 11 0
BBX 11 12 0 0
BITMAP
E1C0
E1C0
E1C0
E1C0
E1C0
7FC0
01C0
01C0
01C0
01E0
00E0
00E0
ENDCHAR
STARTCHAR 04CC
ENCODING 1228
SWIDTH 990 0
DWIDTH 11 0
BBX 11 9 0 0
BITMAP
E1C0
E1C0
E1C0
7FC0
7FC0
01C0
01E0
00E0
00E0
ENDCHAR
STARTCHAR 04CF
ENCODING 1231
SWIDTH 990 0
DWIDTH 11 0
BBX 9 10 1 2
BITMAP
3C00
3C00
1C00
1C00
1C00
1C00
1C00
1C00
1F80
FF80
ENDCHAR
STARTCHAR 04D0
ENCODING 1232
SWIDTH 990 0
DWIDTH 11 0
BBX 10 10 0 2
BITMAP
7F00
7F00
0000
1E00
1300
7300
E1C0
FFC0
E1C0
E1C0
ENDCHAR
STARTCHAR 04D1
ENCODING 1233
SWIDTH 990 0
DWIDTH 11 0
BBX 10 10 0 2
BITMAP
7F00
7F00
0000
7F00
7FC0
01C0
7FC0
E1C0
E1C0
7FC0
ENDCHAR
STARTCHAR 04D2
ENCODING 1234
SWIDTH 990 0
DWIDTH 11 0
BBX 10 10 0 2
BITMAP
7300
7300
0000
1E00
1300
7300
E1C0
FFC0
E1C0
E1C0
ENDCHAR
STARTCHAR 04D3
ENCODING 1235
SWIDTH 990 0
DWIDTH 11 0
BBX 10 10 0 2
BITMAP
7300
7300
0000
7F00
7FC0
01C0
7FC0
E1C0
E1C0
7FC0
ENDCHAR
STARTCHAR 04D4
ENCODING 1236
SWIDTH 990 0
DWIDTH 11 0
BBX 10 10 0 2
BITMAP
1FC0
1E00
7E00
EE00
EFC0
EE00
FE00
EE00
EFC0
EFC0
ENDCHAR
STARTCHAR 04D5
ENCODING 1237
SWIDTH 990 0
DWIDTH 11 0
BBX 10 7 0 2
BITMAP
7F00
7DC0
0D00
7F00
EC00
EF00
7F00
ENDCHAR
STARTCHAR 04D6
ENCODING 1238
SWIDTH 990 0
DWIDTH 11 0
BBX 10 10 0 2
BITMAP
7F00
7F00
0000
FFC0
E000
FF00
FF00
E000
FFC0
FFC0
ENDCHAR
STARTCHAR 04D7
ENCODING 1239
SWIDTH 990 0
DWIDTH 11 0
BBX 10 10 0 2
BITMAP
7F00
7F00
0000
7F00
E1C0
E1C0
FFC0
E000
7F00
7F00
ENDCHAR
STARTCHAR 04D8
ENCODING 1240
SWIDTH 990 0
DWIDTH 11 0
BBX 10 10 0 2
BITMAP
7F00
E1C0
E1C0
01C0
FFC0
E1C0
E1C0
E1C0
E100
7F00
ENDCHAR
STARTCHAR 04D9
ENCODING 1241
SWIDTH 990 0
DWIDTH 11 0
BBX 10 7 0 2
BITMAP
7F00
7FC0
01C0
FFC0
E1C0
6100
7F00
ENDCHAR
STARTCHAR 04DC
ENCODING 1244
SWIDTH 990 0
DWIDTH 11 0
BBX 10 10 0 2
BITMAP
7300
7300
0000
EDC0
EDC0
EDC0
7F00
EDC0
EDC0
EDC0
ENDCHAR
STARTCHAR 04DD
ENCODING 1245
SWIDTH 990 0
DWIDTH 11 0
BBX 10 10 0 2
BITMAP
7300
7300
0000
EDC0
EDC0
EDC0
7F00
EDC0
EDC0
EDC0
ENDCHAR
STARTCHAR 04DE
ENCODING 1246
SWIDTH 990 0
DWIDTH 11 0
BBX 10 10 0 2
BITMAP
7300
7300
0000
7F00
E1C0
E100
0F00
E1C0
E100
7F00
ENDCHAR
STARTCHAR 04DF
ENCODING 1247
SWIDTH 990 0
DWIDTH 11 0
BBX 10 10 0 2
BITMAP
7300
7300
0000
7F00
E1C0
E100
0F00
E1C0
E100
7F00
ENDCHAR
STARTCHAR 04E2
ENCODING 1250
SWIDTH 990 0
DWIDTH 11 0
BBX 10 10 0 2
BITMAP
7F00
7F00
0000
E1C0
E3C0
E3C0
EFC0
FDC0
FDC0
F1C0
ENDCHAR
STARTCHAR 04E3
ENCODING 1251
SWIDTH 990 0
DWIDTH 11 0
BBX 10 10 0 2
BITMAP
7F00
7F00
0000
E1C0
E3C0
EFC0
EDC0
F1C0
E1C0
E1C0
ENDCHAR
STARTCHAR 04E4
ENCODING 1252
SWIDTH 990 0
DWIDTH 11 0
BBX 10 10 0 2
BITMAP
7300
7300
0000
E1C0
E3C0
E3C0
EFC0
FDC0
FDC0
F1C0
ENDCHAR
STARTCHAR 04E5
ENCODING 1253
SWIDTH 990 0
DWIDTH 11 0
BBX 10 10 0 2
BITMAP
7300
7300
0000
E1C0
E3C0
EFC0
EDC0
F1C0
E1C0
E1C0
ENDCHAR
STARTCHAR 04E6
ENCODING 1254
SWIDTH 990 0
DWIDTH 11 0
BBX 10 10 0 2
BITMAP
7300
7300
0000
7F00
E1C0
E1C0
E1C0
E1C0
6100
7F00
ENDCHAR
STARTCHAR 04E7
ENCODING 1255
SWIDTH 990 0
DWIDTH 11 0
BBX 10 10 0 2
BITMAP
7300
7300
0000
7F00
E1C0
E1C0
E1C0
E1C0
6100
7F00
ENDCHAR
STARTCHAR 04E8
ENCODING 1256
SWIDTH 990 0
DWIDTH 11 0
BBX 10 10 0 2
BITMAP
7F00
E1C0
E1C0
E1C0
9EC0
9EC0
E1C0
E1C0
E100
7F00
ENDCHAR
STARTCHAR 04E9
ENCODING 1257
SWIDTH 990 0
DWIDTH 11 0
BBX 10 7 0 2
BITMAP
7F00
E1C0
9EC0
9EC0
E1C0
6100
7F00
ENDCHAR
STARTCHAR 04EE
ENCODING 1262
SWIDTH 990 0
DWIDTH 11 0
BBX 10 10 0 2
BITMAP
7F00
7F00
0000
E1C0
E1C0
E1C0
7FC0
01C0
01C0
7F00
ENDCHAR
STARTCHAR 04EF
ENCODING 1263
SWIDTH 990 0
DWIDTH 11 0
BBX 10 12 0 0
BITMAP
7F00
7F00
0000
E1C0
E1C0
E1C0
E1C0
61C0
7FC0
01C0
0100
7F00
ENDCHAR
STARTCHAR 04F0
ENCODING 1264
SWIDTH 990 0
DWIDTH 11 0
BBX 10 10 0 2
BITMAP
7300
7300
0000
E1C0
E1C0
E1C0
7FC0
01C0
01C0
7F00
ENDCHAR
STARTCHAR 04F1
ENCODING 1265
SWIDTH 990 0
DWIDTH 11 0
BBX 10 12 0 0
BITMAP
7300
7300
0000
E1C0
E1C0
E1C0
E1C0
61C0
7FC0
01C0
0100
7F00
ENDCHAR
STARTCHAR 04F2
ENCODING 1266
SWIDTH 990 0
DWIDTH 11 0
BBX 10 10 0 2
BITMAP
1100
7300
6200
E1C0
E1C0
E1C0
7FC0
01C0
01C0
7F00
ENDCHAR
STARTCHAR 04F3
ENCODING 1267
SWIDTH 990 0
DWIDTH 11 0
BBX 10 12 0 0
BITMAP
1100
7300
6200
E1C0
E1C0
E1C0
E1C0
61C0
7FC0
01C0
0100
7F00
ENDCHAR
STARTCHAR 04F4
ENCODING 1268
SWIDTH 990 0
DWIDTH 11 0
BBX 10 10 0 2
BITMAP
7300
7300
0000
E1C0
E1C0
E1C0
7FC0
01C0
01C0
01C0
ENDCHAR
STARTCHAR 04F5
ENCODING 1269
SWIDTH 990 0
DWIDTH 11 0
BBX 10 10 0 2
BITMAP
7300
7300
0000
E1C0
E1C0
E1C0
7FC0
01C0
01C0
01C0
ENDCHAR
STARTCHAR 04F6
ENCODING 1270
SWIDTH 990 0
DWIDTH 11 0
BBX 9 12 1 0
BITMAP
FF80
E180
E180
E000
E000
E000
E000
E000
E000
F800
3800
3800
ENDCHAR
STARTCHAR 04F7
ENCODING 1271
SWIDTH 990 0
DWIDTH 11 0
BBX 9 9 1 0
BITMAP
FF80
E180
E180
E000
E000
E000
F800
3800
3800
ENDCHAR
STARTCHAR 04F8
ENCODING 1272
SWIDTH 990 0
DWIDTH 11 0
BBX 10 10 0 2
BITMAP
7300
7300
0000
E1C0
FDC0
EDC0
EDC0
EDC0
EDC0
FDC0
ENDCHAR
STARTCHAR 04F9
ENCODING 1273
SWIDTH 990 0
DWIDTH 11 0
BBX 10 10 0 2
BITMAP
7300
7300
0000
E1C0
E1C0
FDC0
FDC0
EDC0
EDC0
FDC0
ENDCHAR
STARTCHAR 051A
ENCODING 1306
SWIDTH 990 0
DWIDTH 11 0
BBX 10 10 0 2
BITMAP
7F00
E1C0
E1C0
E1C0
E1C0
E1C0
EFC0
E300
E2C0
7EC0
ENDCHAR
STARTCHAR 051B
ENCODING 1307
SWIDTH 990 0
DWIDTH 11 0
BBX 10 9 0 0
BITMAP
7FC0
61C0
E1C0
E1C0
E1C0
7FC0
01C0
01C0
01C0
ENDCHAR
STARTCHAR 051C
ENCODING 1308
SWIDTH 990 0
DWIDTH 11 0
BBX 10 10 0 2
BITMAP
EDC0
EDC0
EDC0
EDC0
EDC0
EDC0
FFC0
FFC0
F3C0
6100
ENDCHAR
STARTCHAR 051D
ENCODING 1309
SWIDTH 990 0
DWIDTH 11 0
BBX 10 7 0 2
BITMAP
EDC0
EDC0
EDC0
EDC0
EDC0
FDC0
7300
ENDCHAR
STARTCHAR 0524
ENCODING 1316
SWIDTH 990 0
DWIDTH 11 0
BBX 11 12 0 0
BITMAP
FFC0
E1C0
E1C0
E1C0
E1C0
E1C0
E1C0
E1C0
E1C0
E1E0
00E0
00E0
ENDCHAR
STARTCHAR 0525
ENCODING 1317
SWIDTH 990 0
DWIDTH 11 0
BBX 11 9 0 0
BITMAP
FFC0
E1C0
E1C0
E1C0
E1C0
E1C0
E1E0
00E0
00E0
ENDCHAR
STARTCHAR 2013
ENCODING 8211
SWIDTH 990 0
DWIDTH 11 0
BBX 10 2 0 6
BITMAP
FFC0
FFC0
ENDCHAR
STARTCHAR 2014
ENCODING 8212
SWIDTH 990 0
DWIDTH 11 0
BBX 11 2 0 6
BITMAP
FFE0
FFE0
ENDCHAR
STARTCHAR 2015
ENCODING 8213
SWIDTH 990 0
DWIDTH 11 0
BBX 10 2 0 6
BITMAP
FFC0
FFC0
ENDCHAR
STARTCHAR 2018
ENCODING 8216
SWIDTH 990 0
DWIDTH 11 0
BBX 4 5 3 7
BITMAP
70
60
E0
E0
E0
ENDCHAR
STARTCHAR 2019
ENCODING 8217
SWIDTH 990 0
DWIDTH 11 0
BBX 4 5 3 7
BITMAP
70
70
70
E0
E0
ENDCHAR
STARTCHAR 201A
ENCODING 8218
SWIDTH 990 0
DWIDTH 11 0
BBX 4 4 3 2
BITMAP
70
70
60
E0
ENDCHAR
STARTCHAR 201C
ENCODING 8220
SWIDTH 990 0
DWIDTH 11 0
BBX 9 5 1 7
BITMAP
3B80
2200
E600
E600
E600
ENDCHAR
STARTCHAR 201D
ENCODING 8221
SWIDTH 990 0
DWIDTH 11 0
BBX 9 5 1 7
BITMAP
3B80
3B80
3B80
E600
E600
ENDCHAR
STARTCHAR 201E
ENCODING 8222
SWIDTH 990 0
DWIDTH 11 0
BBX 8 4 0 2
BITMAP
73
73
62
EE
ENDCHAR
STARTCHAR 2020
ENCODING 8224
SWIDTH 990 0
DWIDTH 11 0
BBX 9 10 1 2
BITMAP
1C00
1C00
1C00
FF80
FC00
1C00
1C00
1C00
1C00
1C00
ENDCHAR
STARTCHAR 2021
ENCODING 8225
SWIDTH 990 0
DWIDTH 11 0
BBX 9 10 1 2
BITMAP
1C00
1C00
1C00
FF80
FC00
1F80
FF80
1C00
1C00
1C00
ENDCHAR
STARTCHAR 2022
ENCODING 8226
SWIDTH 990 0
DWIDTH 11 0
BBX 5 6 3 3
BITMAP
70
70
F8
F8
F8
70
ENDCHAR
STARTCHAR 2026
ENCODING 8230
SWIDTH 990 0
DWIDTH 11 0
BBX 10 3 0 2
BITMAP
8CC0
8CC0
8CC0
ENDCHAR
STARTCHAR 2030
ENCODING 8240
SWIDTH 990 0
DWIDTH 11 0
BBX 11 10 0 2
BITMAP
70C0
F1C0
9100
E200
EE00
1FE0
13E0
6D20
EDE0
8FC0
ENDCHAR
STARTCHAR 2039
ENCODING 8249
SWIDTH 990 0
DWIDTH 11 0
BBX 5 8 3 3
BITMAP
18
10
70
E0
E0
70
18
18
ENDCHAR
STARTCHAR 203A
ENCODING 8250
SWIDTH 990 0
DWIDTH 11 0
BBX 6 8 1 3
BITMAP
E0
E0
38
1C
18
38
E0
E0
ENDCHAR
STARTCHAR 2044
ENCODING 8260
SWIDTH 990 0
DWIDTH 11 0
BBX 10 10 0 2
BITMAP
00C0
01C0
0100
0200
0E00
1C00
1000
6000
E000
8000
ENDCHAR
STARTCHAR 2074
ENCODING 8308
SWIDTH 990 0
DWIDTH 11 0
BBX 4 6 3 6
BITMAP
10
70
70
F0
F0
10
ENDCHAR
STARTCHAR 20AC
ENCODING 8364
SWIDTH 990 0
DWIDTH 11 0
BBX 10 10 0 2
BITMAP
0F00
1DC0
1DC0
FE00
F000
7E00
FE00
1DC0
1D00
0F00
ENDCHAR
STARTCHAR 20AE
ENCODING 8366
SWIDTH 990 0
DWIDTH 11 0
BBX 9 10 1 2
BITMAP
FF80
FC00
1C00
1E00
3C00
3E00
1E00
3C00
3C00
1C00
ENDCHAR
STARTCHAR 20AF
ENCODING 8367
SWIDTH 990 0
DWIDTH 11 0
BBX 10 12 0 0
BITMAP
FC00
FC00
8C00
8D00
8D00
8EC0
8EC0
8EC0
FFC0
F300
0200
0200
ENDCHAR
STARTCHAR 20B4
ENCODING 8372
SWIDTH 990 0
DWIDTH 11 0
BBX 10 10 0 2
BITMAP
7E00
7F00
0300
FFC0
FFC0
FFC0
FFC0
7000
7F00
1F00
ENDCHAR
STARTCHAR 20B8
ENCODING 8376
SWIDTH 990 0
DWIDTH 11 0
BBX 9 10 1 2
BITMAP
FF80
FF80
0000
FF80
FC00
1C00
1C00
1C00
1C00
1C00
ENDCHAR
STARTCHAR 20BD
ENCODING 8381
SWIDTH 990 0
DWIDTH 11 0
BBX 11 10 0 2
BITMAP
7FC0
70E0
70E0
70E0
FFC0
F000
7000
FE00
F000
7000
ENDCHAR
STARTCHAR 2116
ENCODING 8470
SWIDTH 990 0
DWIDTH 11 0
BBX 10 10 0 2
BITMAP
E100
93C0
92C0
92C0
92C0
93C0
9100
9000
93C0
93C0
ENDCHAR
STARTCHAR 2122
ENCODING 8482
SWIDTH 990 0
DWIDTH 11 0
BBX 9 5 1 6
BITMAP
FF80
2780
2780
2580
2580
ENDCHAR
STARTCHAR 2190
ENCODING 8592
SWIDTH 990 0
DWIDTH 11 0
BBX 11 10 0 1
BITMAP
0C00
1C00
1C00
7FE0
FFE0
7FE0
7FE0
1C00
0C00
0C00
ENDCHAR
STARTCHAR 2191
ENCODING 8593
SWIDTH 990 0
DWIDTH 11 0
BBX 10 11 0 0
BITMAP
0C00
1E00
1E00
7F00
FFC0
1E00
1E00
1E00
1E00
1E00
1E00
ENDCHAR
STARTCHAR 2192
ENCODING 8594
SWIDTH 990 0
DWIDTH 11 0
BBX 11 10 0 1
BITMAP
0200
0300
0300
FFC0
FFE0
FFC0
FFC0
0300
0200
0200
ENDCHAR
STARTCHAR 2193
ENCODING 8595
SWIDTH 990 0
DWIDTH 11 0
BBX 10 11 0 0
BITMAP
1E00
1E00
1E00
1E00
1E00
FFC0
FFC0
7F00
1E00
1E00
0C00
ENDCHAR
STARTCHAR 2202
ENCODING 8706
SWIDTH 990 0
DWIDTH 11 0
BBX 10 10 0 1
BITMAP
7E00
E300
E300
01C0
7FC0
E1C0
E1C0
E1C0
7F00
7F00
ENDCHAR
STARTCHAR 2206
ENCODING 8710
SWIDTH 990 0
DWIDTH 11 0
BBX 10 10 0 1
BITMAP
1E00
7300
7300
E1C0
E1C0
E1C0
E1C0
E1C0
FFC0
FFC0
ENDCHAR
STARTCHAR 220F
ENCODING 8719
SWIDTH 990 0
DWIDTH 11 0
BBX 10 10 0 1
BITMAP
FFC0
E1C0
E1C0
E1C0
E1C0
E1C0
E1C0
E1C0
E1C0
E1C0
ENDCHAR
STARTCHAR 2211
ENCODING 8721
SWIDTH 990 0
DWIDTH 11 0
BBX 10 10 0 1
BITMAP
FFC0
71C0
71C0
1C00
0F00
1C00
1C00
71C0
FFC0
FFC0
ENDCHAR
STARTCHAR 2215
ENCODING 8725
SWIDTH 990 0
DWIDTH 11 0
BBX 10 10 0 2
BITMAP
00C0
01C0
0100
0200
0E00
1C00
1000
6000
E000
8000
ENDCHAR
STARTCHAR 221A
ENCODING 8730
SWIDTH 990 0
DWIDTH 11 0
BBX 10 10 0 1
BITMAP
0FC0
0E00
0E00
0E00
0E00
EE00
EE00
7E00
1E00
1E00
ENDCHAR
STARTCHAR 221E
ENCODING 8734
SWIDTH 990 0
DWIDTH 11 0
BBX 10 5 0 3
BITMAP
7300
8CC0
8CC0
8CC0
7300
ENDCHAR
STARTCHAR 222B
ENCODING 8747
SWIDTH 990 0
DWIDTH 11 0
BBX 9 11 1 0
BITMAP
0600
1D80
1D80
1C00
1C00
1C00
1C00
1C00
DC00
DC00
3800
ENDCHAR
STARTCHAR 2248
ENCODING 8776
SWIDTH 990 0
DWIDTH 11 0
BBX 8 7 0 3
BITMAP
71
71
8E
00
71
71
8E
ENDCHAR
STARTCHAR 2260
ENCODING 8800
SWIDTH 990 0
DWIDTH 11 0
BBX 10 10 0 1
BITMAP
00C0
0100
0100
FFC0
0C00
FFC0
FFC0
6000
8000
8000
ENDCHAR
STARTCHAR 2264
ENCODING 8804
SWIDTH 990 0
DWIDTH 11 0
BBX 5 10 3 1
BITMAP
18
70
70
E0
70
18
18
00
F8
F8
ENDCHAR
STARTCHAR 2265
ENCODING 8805
SWIDTH 990 0
DWIDTH 11 0
BBX 5 10 3 1
BITMAP
E0
70
70
18
70
E0
E0
00
F8
F8
ENDCHAR
STARTCHAR 25B2
ENCODING 9650
SWIDTH 990 0
DWIDTH 11 0
BBX 10 10 0 1
BITMAP
0C00
0C00
0C00
1E00
1E00
7F00
7F00
7F00
FFC0
FFC0
ENDCHAR
STARTCHAR 25B6
ENCODING 9654
SWIDTH 990 0
DWIDTH 11 0
BBX 10 10 0 1
BITMAP
8000
F000
F000
FE00
FFC0
FE00
FE00
F000
8000
8000
ENDCHAR
STARTCHAR 25BC
ENCODING 9660
SWIDTH 990 0
DWIDTH 11 0
BBX 10 10 0 1
BITMAP
FFC0
7F00
7F00
7F00
1E00
1E00
1E00
0C00
0C00
0C00
ENDCHAR
STARTCHAR 25C0
ENCODING 9664
SWIDTH 990 0
DWIDTH 11 0
BBX 10 10 0 1
BITMAP
00C0
03C0
03C0
1FC0
FFC0
1FC0
1FC0
03C0
00C0
00C0
ENDCHAR
STARTCHAR 25CA
ENCODING 9674
SWIDTH 990 0
DWIDTH 11 0
BBX 10 10 0 1
BITMAP
0C00
1200
1200
6100
80C0
6100
6100
1200
0C00
0C00
ENDCHAR
STARTCHAR 2605
ENCODING 9733
SWIDTH 990 0
DWIDTH 11 0
BBX 10 10 0 1
BITMAP
0C00
0C00
0C00
FFC0
7F00
1E00
1E00
7300
6100
6100
ENDCHAR
STARTCHAR 2606
ENCODING 9734
SWIDTH 990 0
DWIDTH 11 0
BBX 10 10 0 1
BITMAP
0C00
0C00
0C00
F3C0
6100
1200
1200
7F00
6100
6100
ENDCHAR
STARTCHAR 2660
ENCODING 9824
SWIDTH 990 0
DWIDTH 11 0
BBX 10 10 0 1
BITMAP
0C00
1E00
1E00
7F00
FFC0
FFC0
FFC0
1E00
7F00
7F00
ENDCHAR
STARTCHAR 2663
ENCODING 9827
SWIDTH 990 0
DWIDTH 11 0
BBX 9 10 1 1
BITMAP
1C00
1C00
1C00
E380
E380
1C00
1C00
1C00
3E00
3E00
ENDCHAR
STARTCHAR 2665
ENCODING 9829
SWIDTH 990 0
DWIDTH 11 0
BBX 10 10 0 1
BITMAP
7300
FFC0
FFC0
FFC0
FFC0
7F00
7F00
1E00
0C00
0C00
ENDCHAR
STARTCHAR 2666
ENCODING 9830
SWIDTH 990 0
DWIDTH 11 0
BBX 10 10 0 1
BITMAP
0C00
1E00
1E00
7F00
FFC0
7F00
7F00
1E00
0C00
0C00
ENDCHAR
STARTCHAR 266A
ENCODING 9834
SWIDTH 990 0
DWIDTH 11 0
BBX 10 10 0 1
BITMAP
0C00
0E00
0E00
0D00
0CC0
7D00
7D00
FC00
7000
7000
ENDCHAR
STARTCHAR F100
ENCODING 61696
SWIDTH 990 0
DWIDTH 11 0
BBX 9 10 1 1
BITMAP
FF80
C180
C180
FD80
E180
FF80
FF80
E780
FF80
FF80
ENDCHAR
STARTCHAR F101
ENCODING 61697
SWIDTH 990 0
DWIDTH 11 0
BBX 7 3 1 1
BITMAP
1E
FE
FE
ENDCHAR
STARTCHAR F8FF
ENCODING 63743
SWIDTH 990 0
DWIDTH 11 0
BBX 11 10 0 1
BITMAP
0200
7DC0
7DC0
FF20
FF20
FEE0
FEE0
7FC0
1300
1300
ENDCHAR
STARTCHAR FB01
ENCODING 64257
SWIDTH 990 0
DWIDTH 11 0
BBX 10 10 0 2
BITMAP
1E00
7000
7000
FFC0
F1C0
71C0
71C0
71C0
71C0
71C0
ENDCHAR
STARTCHAR FB02
ENCODING 64258
SWIDTH 990 0
DWIDTH 11 0
BBX 10 10 0 2
BITMAP
1FC0
71C0
71C0
FFC0
F1C0
71C0
71C0
71C0
71C0
71C0
ENDCHAR
ENDFONT
